<?xml version="1.0" standalone="no"?>
<!DOCTYPE svg PUBLIC "-//W3C//DTD SVG 1.1//EN" "http://www.w3.org/Graphics/SVG/1.1/DTD/svg11.dtd" >
<!--
2013-9-30: Created.
-->
<svg>
<metadata>
Created by iconfont
</metadata>
<defs>

<font id="iconfont" horiz-adv-x="1024" >
  <font-face
    font-family="iconfont"
    font-weight="500"
    font-stretch="normal"
    units-per-em="1024"
    ascent="896"
    descent="-128"
  />
    <missing-glyph />

    <glyph glyph-name="zhongzhi" unicode="&#60586;" d="M703.488 192.9216v154.624L1011.712 115.5072 703.488-115.712v154.624h-387.072C146.2272 38.912 8.192 176.7424 8.192 347.136v0.4096h154.8288c-0.2048-85.1968 68.8128-154.4192 154.0096-154.624h386.4576z m-387.072 386.2528v-154.624L8.192 655.9744 316.416 887.808v-154.4192h386.4576c170.1888 0 308.224-138.0352 308.224-308.224v-0.4096h-154.0096c-0.2048 85.4016-69.4272 154.624-154.8288 154.624H316.416v-0.2048z"  horiz-adv-x="1024" />


    <glyph glyph-name="zongshizhi" unicode="&#60585;" d="M631.452714 631.577268L509.45072 491.708873 387.448726 631.577268H289.438756l171.006979-195.509471H313.941248v-49.004985h146.504487v-97.499502H313.941248v-49.004985h146.504487v-146.504487h97.499501v146.504487h146.504487v49.004985h-146.504487V387.062812h146.504487v49.004985h-146.504487l171.006979 195.509471h-97.499501z m0 0M509.45072 896C228.692993 896 0.513531 668.331007 0.513531 387.062812s227.668993-508.937188 508.937189-508.937189S1018.387908 105.794616 1018.387908 387.062812 790.718915 896 509.45072 896z m0-944.877368c-240.941176 0-436.450648 195.509472-436.450648 436.450648s195.509472 436.450648 436.450648 436.450648 436.450648-195.509472 436.450648-436.450648c0-241.451645-195.509472-436.450648-436.450648-436.450648z m0 0"  horiz-adv-x="1024" />


    <glyph glyph-name="zuhejiekou" unicode="&#59349;" d="M426.624 367.338667L98.922667 550.698667c-6.912 4.757333-13.845333 4.757333-20.778667 4.757333C52.757333 555.456 32 531.648 32 505.450667V150.613333c0-35.712 18.453333-69.056 48.469333-88.106666l325.376-183.36c6.933333-4.757333 13.866667-4.757333 20.778667-4.757334 25.386667 2.368 46.144 23.808 46.144 52.373334V283.989333c2.304 33.322667-16.149333 66.666667-46.144 83.349334zM101.738667 127.125333c-7.04 5.205333-9.386667 12.970667-9.386667 23.317334V487.018667l308.394667-176.384c7.061333-5.184 9.408-12.949333 9.408-23.317334v-341.205333L101.76 127.146667z m841.813333 425.962667c-6.933333 0-13.866667-2.389333-20.778667-4.778667l-325.397333-183.36a104.64 104.64 0 0 1-48.448-88.106666v-354.837334c0-26.197333 18.453333-50.005333 46.144-50.005333 6.933333 0 13.866667 2.389333 20.778667 4.757333L941.226667 60.16c29.994667 16.661333 50.773333 50.005333 50.773333 88.106667V503.04c-2.304 28.586667-20.778667 50.026667-48.469333 50.026667z m-12.032-412.458667c0-7.765333-2.517333-18.133333-10.069333-23.317333L613.333333-55.168V283.712c0 7.765333 2.517333 18.133333 10.069334 23.296l308.117333 172.906667v-339.285334z m-17.984 526.762667c2.304 16.661333-6.912 30.933333-20.757333 35.712L560.469333 884.096C544.298667 891.242667 528.149333 896 512 896c-16.149333-2.389333-34.624-4.757333-50.773333-11.904L128.917333 705.493333c-13.845333-7.146667-23.061333-21.44-23.061333-35.733333 0-16.661333 6.912-30.933333 20.757333-35.712l332.309334-178.602667c16.149333-7.146667 32.298667-11.904 50.773333-11.904 16.149333 2.368 34.602667 4.757333 50.773333 11.904l332.309334 176.213334c13.845333 7.146667 23.061333 21.44 20.757333 35.733333z m-421.248-156.16L175.530667 671.573333l313.024 161.706667c13.12 5.44 26.24 5.44 36.736 0l319.765333-166.592-316.032-155.456c-5.248-2.709333-10.496-5.44-18.368-5.44-5.248 0-13.12 2.730667-18.368 5.44z"  horiz-adv-x="1024" />


    <glyph glyph-name="yituijian" unicode="&#60581;" d="M1005.056 477.696c-20.992 36.352-58.88 59.392-100.352 61.952h-246.272c25.088 75.264 31.232 155.648 17.92 233.984l-4.096 20.992A124.9792 124.9792 0 0 1 550.4 896C480.256 894.464 424.448 836.096 425.984 765.952v-1.024c-0.512-4.096-0.512-7.68 0-11.776-4.096-125.952-149.504-257.024-199.168-257.024H44.032C20.48 494.592 2.048 474.624 2.56 451.072v-534.016c0.512-24.576 20.992-44.544 45.568-44.544h771.584c42.496 3.584 80.384 29.184 99.84 67.072l7.68 12.8c41.472 102.912 92.16 419.328 94.208 432.64v12.288c2.048 27.648-4.096 55.808-18.432 79.872l2.048 0.512zM74.24 418.816h98.304v-468.992H73.728l0.512 468.992z m788.48-431.616l-5.12-7.68c-4.096-8.704-10.24-15.872-18.432-21.504-6.656-4.608-14.336-7.168-22.528-7.68H246.784V422.912c97.792 19.968 248.832 175.104 253.44 335.36v6.656c-1.024 28.672 21.504 53.248 50.176 54.272 24.064-0.512 45.056-17.92 49.152-41.472l4.096-18.432c10.752-65.024 5.12-131.584-16.384-194.048l-33.792-101.888h344.576c17.92-1.024 34.304-10.752 43.52-26.112 6.656-11.776 9.216-25.6 7.68-38.912 0-3.072-51.712-320.512-87.04-410.624l0.512-0.512z"  horiz-adv-x="1024" />


    <glyph glyph-name="zongzichan4" unicode="&#60582;" d="M731.648 108.544v72.704c143.36 24.576 249.856 71.68 282.112 129.024 6.656-11.264 9.728-23.552 10.24-36.352-0.512-73.216-119.808-135.68-292.352-165.376z m0 220.16V400.896c143.36 24.576 249.856 71.68 282.112 129.024 6.656-11.264 9.728-23.552 10.24-36.352-0.512-73.216-119.808-135.68-292.352-164.864z m239.616 297.472c-34.304-23.04-72.192-40.96-112.128-51.712-226.816-59.392-465.408-59.392-692.736 0-39.936 11.264-77.824 28.672-112.64 51.712C23.04 644.608 3.072 676.864 1.536 712.704c2.048 35.84 21.504 68.096 52.224 86.528 34.304 23.04 72.192 40.96 112.64 51.712 226.816 59.392 465.408 59.392 692.736 0 39.936-11.264 77.824-28.672 112.128-51.712 30.72-18.432 50.176-50.688 52.224-86.528-2.048-35.328-21.504-68.096-52.224-86.528z m-43.008 114.176c-28.16 18.432-58.88 32.256-91.136 40.96-212.992 54.784-436.224 54.784-649.728 0-32.256-8.704-62.976-22.528-91.136-40.96-15.36-3.072-25.088-17.92-22.016-32.768 2.048-10.752 10.752-19.456 22.016-22.016 28.16-18.432 58.88-32.256 91.136-40.96 212.992-54.784 436.224-54.784 649.728 0 32.256 8.704 62.976 22.528 91.136 40.96 10.752 5.632 18.944 15.36 22.016 27.136-3.072 12.288-11.264 22.016-22.016 27.648z m-634.88-338.944v-72.704C120.32 357.888 0.512 420.864 0.512 494.08c0 12.8 3.584 25.6 10.24 36.352 32.256-57.344 139.264-104.96 282.624-129.024z m0-220.16v-72.704C119.808 137.728 0.512 200.704 0.512 273.92c0 12.8 3.584 25.6 10.24 36.352 32.256-56.832 138.752-104.448 282.624-129.024z m47.104 301.568c14.336 14.336 36.864 14.336 51.2 0.512l120.32-120.32 120.32 120.832c14.336 14.336 37.376 14.336 51.712 0.512 14.336-14.336 14.336-37.376 0.512-51.712l-0.512-0.512-83.968-83.968h57.856c19.968 0 36.352-16.384 36.352-36.352s-16.384-36.352-36.352-36.352h-109.568v-72.192h109.568c19.968 0 36.352-16.384 36.352-36.352 0-19.968-16.384-36.352-36.352-36.352h-109.568v-110.592c0-19.968-16.384-36.352-36.352-36.352s-36.352 16.384-36.352 36.352v110.08H367.104c-19.968 0-36.352 16.384-36.352 36.352 0 19.968 16.384 36.352 36.352 36.352H476.16v72.192H367.104c-19.968-0.512-36.864 14.848-37.888 35.328-0.512 19.968 14.848 36.864 35.328 37.888H424.96L340.48 431.616c-13.824 14.336-13.824 36.864 0 51.2zM512-55.296c247.808 0 454.144 62.976 501.248 146.432 6.656-11.264 9.728-23.552 10.24-36.352 0-100.864-228.864-182.784-511.488-182.784S0.512-46.08 0.512 54.784c0 12.8 3.584 25.6 10.24 36.352 47.104-83.456 253.952-145.92 501.248-146.432z"  horiz-adv-x="1024" />


    <glyph glyph-name="weituijian" unicode="&#60583;" d="M1003.008 291.328c14.336 24.064 20.992 51.712 18.432 79.872v12.288c-2.048 13.312-52.736 329.728-94.208 432.64l-7.68 12.8C900.096 866.816 862.72 892.416 819.712 896H48.128C23.552 896 3.072 876.544 2.56 851.456V317.44c-0.512-23.552 17.92-43.52 41.472-45.056h182.784c49.664 0 195.072-131.072 199.168-257.024-0.512-4.096-0.512-7.68 0-11.776v-1.024c-1.536-70.144 54.272-128.512 124.416-130.048 59.904 0.512 110.592 43.008 121.856 101.888l4.096 20.992c13.312 78.336 7.168 158.72-17.92 233.984h246.272c41.984 2.56 79.36 25.6 100.352 61.952h-2.048zM73.728 819.2h98.816v-468.992H74.24L73.728 819.2z m788.48-38.4c35.84-90.112 87.04-407.04 87.04-410.624 1.536-13.312-1.024-27.136-7.68-38.912-9.216-15.36-25.6-25.088-43.52-26.112h-344.576l33.792-101.888c20.992-62.464 26.624-129.024 16.384-194.048l-4.096-18.432c-4.608-23.552-25.088-40.96-49.152-41.472-28.672 1.024-51.2 25.6-50.176 54.272V10.24c-4.608 160.256-156.16 315.392-253.44 335.36V818.688h570.88c8.192-0.512 15.872-3.072 22.528-7.68 7.68-5.632 14.336-12.8 18.432-21.504l5.12-7.68-1.536-1.024z"  horiz-adv-x="1024" />


    <glyph glyph-name="yigentou" unicode="&#60584;" d="M536.064-118.272l0.512 0.512c22.016 21.504 64 59.392 93.696 77.824 7.68 5.12 13.312 12.288 15.36 20.992 2.048 8.704 0.512 17.92-4.096 26.112-9.728 15.872-30.72 20.992-46.592 11.776-19.456-12.288-44.544-31.232-74.24-57.856-2.048-2.048-5.12-3.072-8.192-3.072-3.072 0-6.144 1.024-8.192 3.072-27.136 24.064-50.176 43.008-68.096 54.272-7.68 4.608-16.384 6.144-26.112 4.096-8.704-2.048-16.384-7.68-20.992-15.36-9.216-15.36-5.632-35.84 9.728-46.08 35.328-22.528 83.456-70.656 89.088-75.776 12.8-13.312 34.816-13.312 48.128-0.512zM758.272 329.216c0 16.384-13.312 29.184-29.184 29.184H558.08c-6.144 0-10.752 5.12-10.752 10.752v97.28c0 6.144 5.12 10.752 10.752 10.752h171.008c16.384 0 29.184 13.312 29.184 29.696s-13.312 29.696-29.184 29.696h-115.712c-4.608 0-8.192 2.56-9.728 6.656-1.536 4.096-1.024 8.192 1.536 11.776l68.096 81.408c5.12 6.144 7.68 13.824 6.656 21.504s-4.608 14.848-10.24 19.968c-12.8 10.24-31.232 8.704-41.984-3.072L527.36 556.032c-2.048-2.56-5.12-4.096-8.192-4.096-3.072 0-6.144 1.536-8.192 4.096l-100.352 117.76c-10.24 12.288-29.184 13.824-41.984 4.096-12.8-10.24-14.336-28.672-4.096-41.472l68.096-81.408c2.56-3.072 3.072-7.68 1.536-11.776-1.536-4.096-5.632-6.656-9.728-6.656H309.76c-7.68 0-15.36-3.072-20.992-8.704-5.632-5.632-8.704-13.312-8.704-20.992 0-7.68 3.072-15.36 8.704-20.992 5.632-5.632 13.312-8.704 20.992-8.704h166.912c6.144 0 10.752-5.12 10.752-10.752v-96.256c0-6.144-5.12-10.752-10.752-10.752H308.736c-7.68 0-14.336-3.072-19.968-8.704s-8.704-13.312-8.704-20.992c0-15.872 13.312-29.184 29.184-29.184H476.16c6.144 0 10.752-5.12 10.752-10.752v-128.512c0-16.384 13.312-29.696 29.696-29.696s29.696 13.312 29.696 29.696v129.536c0 6.144 5.12 10.752 10.752 10.752h171.008c17.408-1.536 30.208 11.776 30.208 27.648zM737.792 17.92c8.704-1.536 17.92 0 26.112 5.12 65.024 42.496 118.784 100.864 156.16 168.448 70.656 128.512 78.848 280.064 22.528 415.232-23.552 56.32-57.344 106.496-100.352 150.016C756.224 844.8 640.512 894.464 517.12 896h-5.632c-121.344 0-235.52-46.592-322.56-131.584-2.56-2.048-5.12-5.12-7.168-7.168-43.52-44.032-76.8-94.72-100.352-150.528-56.832-136.192-47.616-288.768 23.552-417.792 37.888-68.608 93.696-126.976 159.744-168.96 7.68-5.12 16.896-6.656 26.112-4.608 8.704 2.048 16.384 7.168 21.504 14.848 9.728 15.872 5.632 36.864-10.24 47.104-56.832 35.84-103.936 86.016-136.192 144.896-34.304 60.928-51.712 130.56-51.712 200.192-1.024 107.52 40.96 209.408 116.224 286.72 73.728 75.264 176.128 118.784 281.6 118.784h0.512c106.496 0 206.848-42.496 282.112-118.784 75.776-76.8 117.76-178.688 117.248-287.232 0-68.608-17.408-137.728-50.688-198.144-31.744-58.368-78.336-108.032-133.632-144.384-7.68-5.12-12.8-12.8-14.848-21.504-1.536-8.704 0-17.92 5.12-26.112 3.072-6.656 10.752-12.288 19.968-13.824z"  horiz-adv-x="1024" />


    <glyph glyph-name="mujizhong" unicode="&#60567;" d="M423.4 656.7c4.8 1.6 9.7 3 14.7 4.4 36 9.6 72.9 12.2 109.8 7.7 38.1-4.7 74.4-17 108-36.3 33.6-19.4 62.3-44.7 85.5-75.4 22.4-29.6 38.6-62.9 48.2-98.9 1.3-4.9 2.5-9.9 3.6-14.9l22.7-13.1c-13.6 88.9-66 171.1-150 219.6s-181.3 52.8-265.1 20.1l22.6-13.2zM601.7 111.2c-5-1.6-10-3.1-15.1-4.5-36-9.6-72.9-12.2-109.8-7.7-38.1 4.7-74.4 17-108 36.3s-62.3 44.7-85.5 75.4c-22.4 29.6-38.6 62.9-48.2 98.9-1.4 5.1-2.6 10.2-3.6 15.3L208.8 338c13.5-89.1 65.9-171.4 150-220s181.6-52.8 265.5-20l-22.6 13.2zM227.6 716.9c5.2 0 10.4-1.4 14.9-4l688.6-397.6c6.9-4 11.9-10.5 14-18.2s1-15.8-3-22.8L821.5 65.6c-5.3-9.3-15.3-15-26-15-5.2 0-10.4 1.4-15 4L92 452.2c-6.9 4-11.9 10.5-14 18.2s-1 15.8 3 22.8l120.5 208.7c5.4 9.3 15.3 15 26.1 15m0 20c-17.3 0-34.1-9-43.3-25L63.7 503.2c-13.8-23.9-5.6-54.5 18.3-68.3l688.6-397.6c7.9-4.5 16.5-6.7 25-6.7 17.3 0 34.1 9 43.3 25l120.5 208.7c13.8 23.9 5.6 54.5-18.3 68.3L252.5 730.2c-7.9 4.6-16.5 6.7-24.9 6.7zM327.4 712.2c27.4 15.4 56.7 27.4 87.5 35.6 47.3 12.7 95.8 16 144.1 10 50-6.2 97.7-22.3 141.8-47.7s81.8-58.7 112.2-99c29.4-38.9 50.7-82.5 63.3-129.8 8.3-30.8 12.5-62.1 12.9-93.5l36.6-21.1c6.1 148.8-68.6 295.8-206.5 375.4s-302.6 70.8-428.4-8.8l36.5-21.1zM696.7 55.2c-27.2-15.3-56.3-27.1-86.9-35.3-47.3-12.7-95.8-16-144.1-10-50 6.2-97.7 22.3-141.8 47.7s-81.8 58.7-112.2 99c-29.4 38.9-50.7 82.5-63.3 129.8-8.2 30.6-12.5 61.7-12.9 92.9l-36.6 21.1c-5.8-148.6 68.9-295.3 206.6-374.8s302.1-70.8 427.8 8.5l-36.6 21.1zM355.9 441.7c5.9-13.8 16.8-28.6 28.6-40.2-5.1-0.8-13.1-4.3-17.7-6.7-6.4 6.9-12.3 15.1-17 23.8-12.8-18.2-19.8-25.5-25.6-27.3-5-1.1-8.9-0.2-14.1 2.3-4.2 1.9-12.2 6.5-20.5 11.8 1.9 4.2 3.5 10.5 3.5 15.3 7.1-5 14.4-9.4 17.4-11.1 2.8-1.6 4.4-2 6.3-1.8 2.7 0.7 6.8 4.6 13.6 14.1L296 441.8c-16.3-11.1-36.6-13.1-70.5-1.9 0.8 4.6 0.3 12.5-0.8 17.1 25.7-9.5 41.6-10.3 53.8-5.1l-31.4 18 3.5 6.1c-8 0.2-16.6 1.2-25.6 2.8 0.4 4.6-1.1 12.6-2.6 16.7 17.3-3.7 32.6-4.7 45.5-3.1l-31.2 18 7.3 12.7 44.9-25.8c3.8 1.5 7.1 3.1 10.3 5.1L268.3 520l27.5 47.8 114.8-66-27.5-47.8-66.7 38.4c-3.3-2.1-6.1-3.9-9.6-5.5l90.3-52-7.3-12.7-33.9 19.5z m-11.6-11.8c-3.5 7.6-5.7 15.3-7.3 22.6l-48.2 27.7c-7.6-2.1-16-3.7-24.8-4.2l26.9-15.5c3 2.9 6 6 8.7 9.5l15.6-9c-2.7-3.5-5.5-6.8-8.4-9.7l37.5-21.4z m-22.6 136.4l-37.4 21.5 7.4 12.8 37.4-21.5 6.1 10.6 15.6-9-6.1-10.6 41.6-23.9 6.1 10.6 15.9-9.2-6.1-10.6 37.8-21.7-7.4-12.8-37.8 21.7-4.4-7.6-15.9 9.2 4.4 7.6-41.6 23.9-4.4-7.6-15.6 9 4.4 7.6zM289.4 521l83.2-47.9 5.4 9.4-83.2 47.9-5.4-9.4z m10.8 18.7l83.2-47.9 5.3 9.2-83.2 47.9-5.3-9.2zM507.3 332.2c10-19.8 27.6-41.9 44.8-58.1-5.2-1.4-13.1-4.7-17.5-7.5-17.8 18.8-35.4 44.4-44.9 68l-19.5-34-15.9 9.2 19.3 33.6c-25.6-4-56.7-2-81.3 3.9-0.4 5.3-1.6 14.1-3 19.3 23.1-6.8 51.5-10.7 74.1-9.2l-55 31.6 7.5 13 68.6-39.5 6.1 10.6 15.9-9.2-6.1-10.6 69.2-39.8-7.5-13-54.8 31.7zM470.1 450c-6.3-1.7-12.5-2.9-19.1-4-0.6 5-3 12.8-5.4 17.2 27.1 3.1 51.5 13.7 67.7 24.3l14.8-12.7c-5.6-3.3-11.4-6.6-17.7-9.5l34-19.5c0.9 5.5 1.5 12.3 1.5 17.8l17-4.2c0.1-7.4-0.3-16.6-1.6-23.3l49.9-28.7-7.3-12.7-54.4 31.3-5.6-9.7 47-27-6.3-10.9-47 27-5.4-9.4 47.3-27.2-6.4-11.1-47.2 27.3-5.7-9.9 59.3-34.1-7.3-12.7-113.4 65.2-2.9-5-15.9 9.2 30.1 52.3z m40.3-56.2L471.7 416l-5.7-9.9 38.7-22.2 5.7 9.9z m11.8 20.5l-38.7 22.2-5.4-9.4 38.7-22.2 5.4 9.4z m11.9 20.6l-38.7 22.2-5.6-9.7 38.7-22.2 5.6 9.7zM788.4 288.6l-47.7-82.9-16.8 9.7 5.4 9.4-45.1 25.9-31.7-55.1-16.8 9.7 31.7 55.1-44.9 25.8-5.9-10.2-16.1 9.3 48.2 83.7 61-35.1 17.4 30.2 16.8-9.7-17.4-30.2 61.9-35.6z m-111.9-12.4l24.1 42-44.9 25.8-24.1-42 44.9-25.8z m61.9-35.6l24.1 42-45.1 25.9-24.1-42 45.1-25.9z"  horiz-adv-x="1024" />


    <glyph glyph-name="mujishibai" unicode="&#60568;" d="M423.4 656.7c4.8 1.6 9.7 3 14.7 4.4 36 9.6 72.9 12.2 109.8 7.7 38.1-4.7 74.4-17 108-36.3 33.6-19.4 62.3-44.7 85.5-75.4 22.4-29.6 38.6-62.9 48.2-98.9 1.3-4.9 2.5-9.9 3.6-14.9l22.7-13.1c-13.6 88.9-66 171.1-150 219.6s-181.3 52.8-265.1 20.1l22.6-13.2zM601.7 111.2c-5-1.6-10-3.1-15.1-4.5-36-9.6-72.9-12.2-109.8-7.7-38.1 4.7-74.4 17-108 36.3s-62.3 44.7-85.5 75.4c-22.4 29.6-38.6 62.9-48.2 98.9-1.4 5.1-2.6 10.2-3.6 15.3L208.8 338c13.5-89.1 65.9-171.4 150-220s181.6-52.8 265.5-20l-22.6 13.2zM227.6 716.9c5.2 0 10.4-1.4 14.9-4l688.6-397.6c6.9-4 11.9-10.5 14-18.2s1-15.8-3-22.8L821.5 65.6c-5.3-9.3-15.3-15-26-15-5.2 0-10.4 1.4-15 4L92 452.2c-6.9 4-11.9 10.5-14 18.2s-1 15.8 3 22.8l120.5 208.7c5.4 9.3 15.3 15 26.1 15m0 20c-17.3 0-34.1-9-43.3-25L63.7 503.2c-13.8-23.9-5.6-54.5 18.3-68.3l688.6-397.6c7.9-4.5 16.5-6.7 25-6.7 17.3 0 34.1 9 43.3 25l120.5 208.7c13.8 23.9 5.6 54.5-18.3 68.3L252.5 730.2c-7.9 4.6-16.5 6.7-24.9 6.7zM327.4 712.2c27.4 15.4 56.7 27.4 87.5 35.6 47.3 12.7 95.8 16 144.1 10 50-6.2 97.7-22.3 141.8-47.7s81.8-58.7 112.2-99c29.4-38.9 50.7-82.5 63.3-129.8 8.3-30.8 12.5-62.1 12.9-93.5l36.6-21.1c6.1 148.8-68.6 295.8-206.5 375.4s-302.6 70.8-428.4-8.8l36.5-21.1zM696.7 55.2c-27.2-15.3-56.3-27.1-86.9-35.3-47.3-12.7-95.8-16-144.1-10-50 6.2-97.7 22.3-141.8 47.7s-81.8 58.7-112.2 99c-29.4 38.9-50.7 82.5-63.3 129.8-8.2 30.6-12.5 61.7-12.9 92.9l-36.6 21.1c-5.8-148.6 68.9-295.3 206.6-374.8s302.1-70.8 427.8 8.5l-36.6 21.1zM298.5 477.3c5.3-12.4 15.1-25.7 25.7-36.2-4.6-0.7-11.8-3.8-15.9-6-5.8 6.2-11.1 13.6-15.3 21.5-11.5-16.4-17.8-23-23-24.5-4.5-0.9-8-0.2-12.7 2.1-3.8 1.8-10.9 5.9-18.4 10.6 1.8 3.8 3.1 9.4 3.1 13.8 6.3-4.5 13-8.5 15.6-10 2.5-1.4 3.9-1.8 5.7-1.6 2.5 0.7 6.1 4.2 12.3 12.7l-31 17.9c-14.7-10-32.9-11.8-63.5-1.7 0.7 4.2 0.3 11.3-0.7 15.4 23.1-8.5 37.4-9.3 48.4-4.6l-28.2 16.2 3.1 5.5c-7.2 0.2-14.9 1.1-23.1 2.5 0.3 4.2-0.9 11.3-2.3 15.1 15.5-3.3 29.3-4.2 41-2.8L191.1 539l6.6 11.4 40.4-23.2c3.5 1.3 6.4 2.8 9.3 4.6l-27.8 16 24.8 43.1 103.3-59.4-24.8-43.1-60.1 34.6c-2.9-1.8-5.5-3.5-8.7-5l81.3-46.8-6.6-11.4-30.3 17.5zM288 466.7c-3.2 6.8-5.2 13.8-6.5 20.4l-43.4 25c-6.9-1.9-14.4-3.4-22.3-3.8l24.2-13.9c2.7 2.6 5.4 5.4 7.8 8.6l14-8.1c-2.4-3.2-5-6.1-7.5-8.8l33.7-19.4z m-20.3 122.8L234 608.9l6.6 11.5 33.7-19.4 5.5 9.5 14-8.1-5.5-9.5 37.4-21.5 5.5 9.5 14.4-8.3-5.5-9.5 34-19.6-6.6-11.5-34 19.6-3.9-6.9-14.4 8.3 3.9 6.9-37.4 21.5-3.9-6.9-14 8.1 3.9 6.9z m-29.1-40.8l74.9-43.1 4.8 8.4-74.9 43.1-4.8-8.4z m9.7 16.8l74.9-43.1 4.8 8.3-74.9 43.1-4.8-8.3zM426.9 383.3c9-17.9 24.8-37.7 40.3-52.3-4.7-1.3-11.8-4.2-15.7-6.7-16 16.9-31.9 39.9-40.4 61.2l-17.6-30.6-14.4 8.3 17.4 30.3c-23-3.6-51.1-1.8-73.2 3.5-0.4 4.8-1.4 12.7-2.7 17.3 20.8-6.1 46.4-9.6 66.7-8.3L338 434.4l6.7 11.7 61.8-35.5 5.5 9.5 14.4-8.3-5.5-9.5 62.3-35.8-6.7-11.7-49.6 28.5z m-33.5 106c-5.7-1.5-11.3-2.6-17.2-3.6-0.5 4.5-2.7 11.5-4.8 15.4 24.4 2.8 46.4 12.4 60.9 21.8l13.4-11.4c-5-2.9-10.3-5.9-15.9-8.5l30.6-17.6c0.8 5 1.4 11 1.3 16l15.3-3.8c0.1-6.7-0.3-15-1.5-21l44.9-25.8-6.6-11.4-49 28.2-5-8.7 42.3-24.3-5.7-9.8-42.3 24.3-4.8-8.4 42.6-24.5-5.7-10-42.6 24.5-5.1-8.9 53.4-30.7-6.6-11.4-102 58.7-2.6-4.5-14.4 8.3 27.1 47.1z m36.4-50.6l-34.8 20-5.1-8.9 34.8-20 5.1 8.9z m10.6 18.4l-34.8 20-4.8-8.4 34.8-20 4.8 8.4z m10.6 18.6l-34.8 20-5-8.7 34.8-20 5 8.7zM589.5 321.5c-2.7-30 7.7-57.4 34.2-81.3-5-1.5-13.1-5.1-17.3-8.1-26.6 26.3-36.3 54.9-33.2 88.9-20.1-16.5-48.7-25.4-92.9-16.1 0.3 4.4-0.4 13.1-2 17.8 42.1-8.8 67.8-1 85.4 13.8l-55.9 32.1 8.4 14.7 59.6-34.3c5 6.1 9.2 12.8 13.1 19.5l4.4 7.6-32.8 18.8c-9.4-6.2-18.6-11.1-27.1-14.3-1.6 4-6.7 11.8-9.5 15.6 18.8 6 39.9 21 57.2 38.3l13.4-12.1c-6.1-5.9-12.4-11.5-19.1-16.6l26.4-15.2 15 26.1 15.1-8.7-15-26.1 49.5-28.5-8.4-14.7-49.5 28.5-4.5-7.8c-3.9-6.7-8-13.2-12.7-19.5l63.5-36.5-8.4-14.7-56.9 32.8zM710.4 267.3c-13.5-23.4-34.6-50.7-74.7-52.2-0.3 3.7-1.6 10.7-3.3 14.5 36.5-0.4 54.1 25.4 65.4 45l24 41.7 12.6-7.3-24-41.7z m-40.5-16.8l-11.7 6.7 54.3 94.4 57.1-32.8-53.9-93.8-12.2 7 46.4 80.7-33.2 19.1-46.8-81.3z m27.9-20.6c1.8-12 3.5-28.6 3.6-37.8l-14.8-1.2c0.4 9.3-0.8 26-2.1 38.6l13.3 0.4z m119.4 17.7c-18.9-25.7-37.5-43.8-56-55.2 2.1-16.2 7.4-31.2 16.2-44-4.6-0.7-11.3-3.5-15.5-5.6-7.8 12.8-12.5 26.9-14.9 42-14.2-6.3-28.4-9-42.8-8.8 0.3 4.2-1.3 11.8-2.7 15.5 15-1 29.5 1.9 44 8.7-0.9 15.7 0.6 32.5 4.4 49.8-3.4-2-6.7-3.6-9.7-5 0.1 3.7-0.7 12.5-1.6 17.1 19.7 8.6 41.2 27.2 59.7 48.1l11.5-10.3c-6.2-6.8-12.9-13.4-19.4-19.6l44.3-25.5-7.5-12.9-10 5.7zM778.3 270c-3.7-3.2-7.6-6.4-11.7-9.1-4.9-17.5-7.4-35.6-6.9-52.5 15 10.2 29.9 25.6 45.1 46.3L778.3 270z"  horiz-adv-x="1024" />


    <glyph glyph-name="icon-3" unicode="&#59339;" d="M163.069477 407.352559V546.828311a46.545418 46.545418 0 0 0 46.545418 46.545418h605.090435a46.545418 46.545418 0 0 0 46.545418-46.545418v-139.636254h69.818128v232.72709a23.192458 23.192458 0 0 1-23.112208 23.272709H512.079862a46.384917 46.384917 0 0 0-38.680847 20.704686l-79.287712 118.931569H116.524059a23.272709 23.272709 0 0 1-23.513461-23.031957V407.272308z m767.919148-93.090837H93.25135v-325.577174a23.43321 23.43321 0 0 1 23.433211-23.43321h790.790603a23.272709 23.272709 0 0 1 23.43321 23.272709z m-23.112208 442.101221a116.363545 116.363545 0 0 0 116.203044-116.443796v-651.475351a116.363545 116.363545 0 0 0-116.443796-116.363545H116.524059a116.524047 116.524047 0 0 0-116.524046 116.363545V779.555402A116.443796 116.443796 0 0 0 116.524059 895.999197h302.545218a46.545418 46.545418 0 0 0 38.761098-20.463933l79.207461-118.931569zM256.160314 500.363144v-93.010585h511.919348V500.363144z"  horiz-adv-x="1024" />


    <glyph glyph-name="more-1" unicode="&#59340;" d="M636.810405 383.926759L221.693651 787.534291a62.516008 62.516008 0 0 0 0 89.632435 66.178033 66.178033 0 0 0 92.248168 0l507.364922-493.239967-507.364922-493.239966a66.178033 66.178033 0 0 0-92.248168 0 62.516008 62.516008 0 0 0 0 89.632435z"  horiz-adv-x="1024" />


    <glyph glyph-name="icon-3-1" unicode="&#59342;" d="M163.069477 407.352559V546.828311a46.545418 46.545418 0 0 0 46.545418 46.545418h605.090435a46.545418 46.545418 0 0 0 46.545418-46.545418v-139.636254h69.818128v232.72709a23.192458 23.192458 0 0 1-23.112208 23.272709H512.079862a46.384917 46.384917 0 0 0-38.680847 20.704686l-79.287712 118.931569H116.524059a23.272709 23.272709 0 0 1-23.513461-23.031957V407.272308z m767.919148-93.090837H93.25135v-325.577174a23.43321 23.43321 0 0 1 23.433211-23.43321h790.790603a23.272709 23.272709 0 0 1 23.43321 23.272709z m-23.112208 442.101221a116.363545 116.363545 0 0 0 116.203044-116.443796v-651.475351a116.363545 116.363545 0 0 0-116.443796-116.363545H116.524059a116.524047 116.524047 0 0 0-116.524046 116.363545V779.555402A116.443796 116.443796 0 0 0 116.524059 895.999197h302.545218a46.545418 46.545418 0 0 0 38.761098-20.463933l79.207461-118.931569zM256.160314 500.363144v-93.010585h511.919348V500.363144z"  horiz-adv-x="1024" />


    <glyph glyph-name="icon-2" unicode="&#59343;" d="M794.884311-28.121387h66.611833a49.939306 49.939306 0 0 1 49.939307 49.939306V646.372349a49.939306 49.939306 0 0 1-49.939307 49.939307v-599.193403a149.817919 149.817919 0 0 0-59.958478-119.838681l-6.653355-5.009585z m58.079883 823.920282h8.453675a149.817919 149.817919 0 0 0 149.81792-149.426546v-624.163056a149.817919 149.817919 0 0 0-149.81792-149.817919H162.267579a149.817919 149.817919 0 0 0-149.81792 149.817919V646.372349a149.817919 149.817919 0 0 0 149.81792 149.426546h8.53195A149.817919 149.817919 0 0 0 402.101489 865.54172l99.878613-74.90896q5.24441-3.913739 10.019172-7.827478 4.774761 4.305113 10.019171 7.827478L621.818783 865.54172a149.817919 149.817919 0 0 0 231.145411-69.899375zM561.860305 670.950629v-649.13271a49.939306 49.939306 0 0 1 79.918546-39.920135l99.878613 74.90896a49.939306 49.939306 0 0 1 19.960067 39.920135V745.859589a49.939306 49.939306 0 0 1-79.918545 39.920135l-99.878613-74.90896a49.939306 49.939306 0 0 1-19.960068-39.920135z m-99.878613 0a49.939306 49.939306 0 0 1-19.960067 39.920135l-99.722064 74.90896a49.939306 49.939306 0 0 1-79.918545-39.920135v-649.13271a49.939306 49.939306 0 0 1 19.960068-39.920135l99.878613-74.90896a49.939306 49.939306 0 0 1 79.918545 39.920135z m-299.714113 24.969653a49.939306 49.939306 0 0 1-49.939307-49.939306v-624.163057a49.939306 49.939306 0 0 1 49.939307-49.939306h66.611833l-6.653356 5.009586a149.817919 149.817919 0 0 0-59.958477 119.83868z"  horiz-adv-x="1024" />


    <glyph glyph-name="pdf" unicode="&#59344;" d="M899.7284-28.525714c0-11.702857-5.851429-26.331429-14.628572-35.108572-8.777143-8.777143-20.48-14.628571-35.108571-14.628571H171.225542c-11.702857 0-26.331429 5.851429-35.108571 14.628571-8.777143 8.777143-14.628571 20.48-14.628571 35.108572V846.262857c0 11.702857 5.851429 26.331429 14.628571 35.108572C144.894114 890.148571 156.596971 896 171.225542 896h418.377143c11.702857 0 26.331429-5.851429 35.108572-14.628571l263.314285-263.314286c8.777143-8.777143 14.628571-20.48 14.628572-35.108572l-2.925714-611.474285zM899.7284-28.525714v-49.737143c0-11.702857-5.851429-26.331429-14.628572-35.108572-8.777143-8.777143-20.48-14.628571-35.108571-14.628571H171.225542c-26.331429 0-49.737143 20.48-49.737142 49.737143v49.737143c0-11.702857 5.851429-26.331429 14.628571-35.108572 8.777143-5.851429 20.48-11.702857 35.108571-11.702857h678.765715c26.331429 0 49.737143 20.48 49.737143 46.811429zM24.939828 360.594286h971.337143v-242.834286c0-26.331429-20.48-49.737143-49.737143-49.737143H74.676971c-11.702857 0-26.331429 5.851429-35.108571 14.628572-8.777143 11.702857-14.628571 23.405714-14.628572 35.108571v242.834286zM121.4884 360.594286V457.142857L24.939828 360.594286h96.548572z m778.24 0V457.142857l96.548571-96.548571h-96.548571zM902.654114 585.874286v-5.851429h-263.314286c-11.702857 0-26.331429 5.851429-35.108571 14.628572-8.777143 8.777143-14.628571 20.48-14.628572 35.108571V896c11.702857 0 26.331429-5.851429 35.108572-14.628571l263.314285-263.314286c8.777143-8.777143 14.628571-20.48 14.628572-32.182857zM279.476971 141.165714c0 8.777143 2.925714 17.554286 2.925714 29.257143V281.6c0 11.702857 0 20.48-2.925714 29.257143h73.142857c40.96 0 64.365714-20.48 64.365714-55.588572s-23.405714-58.514286-64.365714-58.514285h-32.182857v-26.331429c0-11.702857 0-23.405714 2.925714-32.182857H279.476971z m73.142857 93.622857c14.628571 0 23.405714 8.777143 23.405714 23.405715s-8.777143 20.48-23.405714 20.48h-29.257143v-43.885715h29.257143zM437.465542 284.525714c0 14.628571 0 20.48-2.925714 29.257143h73.142857c26.331429 0 46.811429-5.851429 58.514286-20.48 14.628571-14.628571 23.405714-35.108571 23.405714-64.365714 0-29.257143-8.777143-49.737143-23.405714-67.291429-14.628571-14.628571-32.182857-20.48-58.514286-20.48H434.539828c0 8.777143 2.925714 14.628571 2.925714 29.257143v114.102857z m67.291429-105.325714c14.628571 0 23.405714 2.925714 29.257143 11.702857 8.777143 8.777143 11.702857 23.405714 11.702857 38.034286 0 17.554286-2.925714 29.257143-11.702857 38.034286-5.851429 5.851429-17.554286 11.702857-32.182857 11.702857h-26.331429v-99.474286h29.257143zM651.042685 179.2c0-20.48 0-26.331429 2.925715-35.108571H610.082685c0 8.777143 2.925714 17.554286 2.925715 35.108571v105.325714c0 14.628571 0 20.48-2.925715 29.257143h122.88v-38.034286h-81.92v-32.182857H721.259828v-38.034285H651.042685v-26.331429z"  horiz-adv-x="1024" />


    <glyph glyph-name="ppt" unicode="&#59345;" d="M901.603085-30.444502a48.287125 48.287125 0 0 0-14.302608-34.459161 48.856698 48.856698 0 0 0-34.427518-14.334251H170.556264a48.255482 48.255482 0 0 0-34.427518 14.334251 48.888341 48.888341 0 0 0-14.302609 34.459161V847.204056A48.287125 48.287125 0 0 0 136.128746 881.663217 48.856698 48.856698 0 0 0 170.556264 895.997469h418.572798a48.698483 48.698483 0 0 0 34.807233-14.112751l263.712254-263.838826a48.761769 48.761769 0 0 0 14.112751-34.807233z m0 0M901.603085-30.444502v-48.761769a48.255482 48.255482 0 0 0-14.302608-34.459161 48.888341 48.888341 0 0 0-34.427518-14.334252H170.556264a48.761769 48.761769 0 0 0-48.76177 48.76177v48.793412a48.255482 48.255482 0 0 1 14.302609-34.459161 48.888341 48.888341 0 0 1 34.427518-14.302608h682.221767a48.888341 48.888341 0 0 1 48.761769 48.761769z m0 0M24.619028 359.934437h974.602525v-243.650631a48.856698 48.856698 0 0 0-48.76177-48.761769H73.380798A48.255482 48.255482 0 0 0 38.95328 81.824646a48.856698 48.856698 0 0 0-14.334252 34.45916z m0 0M121.921066 359.649651v97.523538L24.397528 359.649651z m779.713662 0l0.949289 97.523538 96.985608-97.523538z m0 0M901.634728 583.523445v-6.834875h-263.712254a48.761769 48.761769 0 0 0-48.761769 48.761769V895.934183a48.698483 48.698483 0 0 0 34.649018-14.112751l264.123613-263.617326a49.331342 49.331342 0 0 0 13.701392-34.680661z m0 0M264.567436 118.245668V309.337378h61.830303a219.601997 219.601997 0 0 0 45.850618-2.911151 50.628703 50.628703 0 0 0 27.497714-18.669334 59.520368 59.520368 0 0 0 11.106672-37.243739 62.304947 62.304947 0 0 0-6.328588-29.554505 53.792996 53.792996 0 0 0-16.169542-18.985764 54.678999 54.678999 0 0 0-20.02998-9.018237 217.292063 217.292063 0 0 0-40.028318-2.68965h-25.092851v-71.987687H264.567436z m38.604385 158.720983v-54.141069h21.042555a100.56126 100.56126 0 0 1 30.503793 3.164294 25.314351 25.314351 0 0 1 12.024317 9.492882 25.757352 25.757352 0 0 1 4.366726 14.840538 24.997922 24.997922 0 0 1-6.107088 17.213759 26.453497 26.453497 0 0 1-15.441754 8.511951 191.028423 191.028423 0 0 1-27.814143 1.329003H303.171821z m139.41879-158.720983V309.337378h61.830303a219.601997 219.601997 0 0 0 45.850619-2.911151 50.628703 50.628703 0 0 0 27.497714-18.669334 59.552011 59.552011 0 0 0 11.106671-37.243739 62.368233 62.368233 0 0 0-6.328587-29.554505 53.792996 53.792996 0 0 0-16.169542-18.985764 54.678999 54.678999 0 0 0-20.029981-9.018237 217.355349 217.355349 0 0 0-40.059961-2.68965h-25.09285v-71.987687H442.717183z m38.604386 158.720983v-54.141069h21.042554a100.624546 100.624546 0 0 1 30.503793 3.164294 25.314351 25.314351 0 0 1 12.024317 9.492882 25.788995 25.788995 0 0 1 4.366726 14.840538 24.997922 24.997922 0 0 1-6.107087 17.213759 26.453497 26.453497 0 0 1-15.473398 8.511951 190.99678 190.99678 0 0 1-27.814143 1.329003h-18.574405z m182.358258-158.720983v158.720983h-56.640861V309.337378h151.886107v-32.275798h-56.545932v-158.720983z"  horiz-adv-x="1024" />


    <glyph glyph-name="png" unicode="&#59346;" d="M901.603085-30.444502a48.287125 48.287125 0 0 0-14.302608-34.459161 48.856698 48.856698 0 0 0-34.427518-14.334251H170.556264a48.223839 48.223839 0 0 0-34.427518 14.334251 48.888341 48.888341 0 0 0-14.302609 34.459161V847.204056A48.287125 48.287125 0 0 0 136.128746 881.663217 48.856698 48.856698 0 0 0 170.556264 895.997469h418.572798a48.698483 48.698483 0 0 0 34.807233-14.112751l263.712254-263.838826a48.730126 48.730126 0 0 0 14.112751-34.807233v-613.873019z m0 0M901.603085-30.444502v-48.761769a48.255482 48.255482 0 0 0-14.302608-34.459161 48.888341 48.888341 0 0 0-34.427518-14.334252H170.556264a48.761769 48.761769 0 0 0-48.76177 48.76177v48.793412a48.255482 48.255482 0 0 1 14.302609-34.459161 48.888341 48.888341 0 0 1 34.427518-14.302608h682.221767a48.888341 48.888341 0 0 1 48.761769 48.761769z m0 0M24.397528 359.523079h974.602524v-243.650631a48.888341 48.888341 0 0 0-48.761769-48.761769H73.159297a48.223839 48.223839 0 0 0-34.427518 14.302608A48.856698 48.856698 0 0 0 24.397528 115.872448z m0 0M121.921066 359.649651v97.523538L24.397528 359.649651z m779.713662 0l0.949289 97.523538 96.985608-97.523538z m0 0M905.052166 583.523445v-6.834875h-264.123613a48.255482 48.255482 0 0 0-34.45916 14.302609 48.856698 48.856698 0 0 0-14.302609 34.427517V895.934183a48.730126 48.730126 0 0 0 34.807233-14.112751l264.123613-263.617326a49.995844 49.995844 0 0 0 13.954536-34.680661z m0 0M259.061564 117.61281v191.154995H320.891867a219.064067 219.064067 0 0 0 45.850619-2.911151 50.628703 50.628703 0 0 0 27.497714-18.669334 59.552011 59.552011 0 0 0 11.106672-37.243739 62.304947 62.304947 0 0 0-6.328588-29.554505 53.571496 53.571496 0 0 0-16.169542-18.985764 54.773928 54.773928 0 0 0-20.029981-9.018237 217.102205 217.102205 0 0 0-40.028317-2.68965h-25.092851v-72.082615z m38.604386 158.720982v-54.141069h21.042554a100.624546 100.624546 0 0 1 30.503794 3.164294 25.314351 25.314351 0 0 1 12.024317 9.492882 25.757352 25.757352 0 0 1 4.366725 14.840538 24.997922 24.997922 0 0 1-6.107087 17.213759 26.453497 26.453497 0 0 1-15.441754 8.511951 191.091709 191.091709 0 0 1-27.814144 1.329003h-18.574405z m139.735219-158.720982v191.154995h37.560169l78.221345-127.615974v127.615974h35.788164v-190.996781h-38.794243l-76.892342 124.546609v-124.609894h-35.883093z m281.242443 70.215682v32.339083h83.094358v-75.943054a104.896343 104.896343 0 0 0-35.155306-20.662839 128.533619 128.533619 0 0 0-46.578406-8.923309 105.339344 105.339344 0 0 0-52.274135 12.657176 79.930064 79.930064 0 0 0-33.509873 35.978022 116.192872 116.192872 0 0 0-11.2016 50.850203 109.104854 109.104854 0 0 0 12.657175 53.001923 84.29679 84.29679 0 0 0 36.610881 35.566663 98.884185 98.884185 0 0 0 45.75569 9.492882 91.226593 91.226593 0 0 0 55.596644-14.935467 67.589318 67.589318 0 0 0 25.725709-41.135821l-38.287956-7.151304a40.756106 40.756106 0 0 1-15.156968 22.150057 46.261977 46.261977 0 0 1-27.814143 8.195521 52.115921 52.115921 0 0 1-40.15489-16.074613 67.431103 67.431103 0 0 1-14.935467-47.464408 74.993766 74.993766 0 0 1 15.156968-51.040061 50.628703 50.628703 0 0 1 39.616959-17.023901 65.24774 65.24774 0 0 1 24.270135 4.778084 80.752781 80.752781 0 0 1 20.947625 11.518029v24.270135z"  horiz-adv-x="1024" />


    <glyph glyph-name="word" unicode="&#59348;" d="M901.679617-30.504941a48.257048 48.257048 0 0 0-14.271428-34.460279 48.826639 48.826639 0 0 0-34.428635-14.271429H170.577431a48.19376 48.19376 0 0 0-34.428635 14.271429 48.858283 48.858283 0 0 0-14.271429 34.460279V847.203739A48.288692 48.288692 0 0 0 136.148796 881.664018 48.794995 48.794995 0 0 0 170.577431 895.935446h418.618024a48.668419 48.668419 0 0 0 34.650142-14.113208l263.752455-263.847388a48.794995 48.794995 0 0 0 14.113209-34.808362z m0 0M901.679617-30.536585v-48.763352a48.257048 48.257048 0 0 0-14.271428-34.460278 48.826639 48.826639 0 0 0-34.428635-14.271429H170.545787a48.794995 48.794995 0 0 0-48.763352 48.763351v48.731708a48.19376 48.19376 0 0 1 14.271429-34.428635 48.794995 48.794995 0 0 1 34.428635-14.271429h682.497055a48.889927 48.889927 0 0 1 48.763351 48.763352zM24.382309 359.475294h974.634147v-243.658537a48.889927 48.889927 0 0 0-48.700063-48.763352H73.14566a48.257048 48.257048 0 0 0-34.460279 14.271429 48.826639 48.826639 0 0 0-14.271428 34.428635zM121.845723 359.570226V457.096928L24.382309 359.570226h97.463414z m779.770606 0l0.949319 97.526702 97.020399-97.526702zM901.679617 583.482928v-6.835097H637.958806a48.763351 48.763351 0 0 0-48.763351 48.763351V895.998734a48.668419 48.668419 0 0 0 34.650142-14.113209l264.163827-263.594235a49.396231 49.396231 0 0 0 13.670193-34.808362z m0 0M437.684146 284.60567l-44.744567-167.713018h-39.744822l-28.479569 109.393189a90.56503 90.56503 0 0 0-2.721381 18.51172h-0.443015a116.164999 116.164999 0 0 0-3.164397-18.51172l-29.239024-109.393189H247.820351l-44.712923 167.713018h39.206873l24.903801-113.696769a124.835445 124.835445 0 0 0 2.278366-18.986379h0.759455a98.476022 98.476022 0 0 0 3.35426 19.366107l31.200951 113.158822h37.972759l28.479569-114.551157a117.082674 117.082674 0 0 0 2.721381-17.783908h0.506303a103.190973 103.190973 0 0 0 2.499874 18.416788l24.365853 113.918277z m9.081818-108.380583a61.167786 61.167786 0 0 0 17.688977 46.453342 65.946025 65.946025 0 0 0 47.465949 16.866234 62.813272 62.813272 0 0 0 45.915395-16.644726 59.648876 59.648876 0 0 0 16.992809-44.68128 66.832056 66.832056 0 0 0-111.038676-47.465948 60.629839 60.629839 0 0 0-17.024454 45.314159z m35.409598 0.411372q0-35.852613 29.239025-35.852613 28.068198 0 28.068197 36.833576 0 35.093158-28.258061 35.093158a26.01134 26.01134 0 0 1-21.391321-9.49319 41.327019 41.327019 0 0 1-7.65784-26.644219z m198.28109 28.258062a30.631359 30.631359 0 0 1-15.410611 3.639056 22.593792 22.593792 0 0 1-18.98638-9.081819 40.124549 40.124549 0 0 1-6.993316-25.030377v-57.623661h-35.02987v119.835698h35.02987v-22.530503h0.443015a31.992049 31.992049 0 0 0 31.643966 24.650649 24.777225 24.777225 0 0 0 9.49319-1.392335z m136.543713-88.033513h-34.808363v16.866233h-0.537947a41.611815 41.611815 0 0 0-37.466456-19.809122 44.8395 44.8395 0 0 0-36.327272 16.138422 66.610548 66.610548 0 0 0-13.48033 43.953469 71.515363 71.515363 0 0 0 15.125816 47.465949 48.984859 48.984859 0 0 0 39.460025 18.03706 34.207127 34.207127 0 0 0 32.719861-16.866234h0.537947V294.130504h34.808363z m-34.333703 67.813018a28.479569 28.479569 0 0 1-7.309756 20.093919 23.796262 23.796262 0 0 1-18.258569 7.942635 23.448179 23.448179 0 0 1-20.093918-10.126069 46.04197 46.04197 0 0 1-7.309756-27.466962 40.219481 40.219481 0 0 1 7.056604-25.315173 24.777225 24.777225 0 0 1 38.510707 0.506303 38.194267 38.194267 0 0 1 7.467976 24.460786z"  horiz-adv-x="1024" />


    <glyph glyph-name="shangchuan-1" unicode="&#59318;" d="M562.541009-128H460.584682a56.990681 56.990681 0 1 0 0 113.981361H562.768972a56.990681 56.990681 0 1 0 0-113.981361z m284.041552 517.247417H625.857655v-226.139021a61.891879 61.891879 0 0 0-63.373637-63.373636H463.035281a61.891879 61.891879 0 0 0-63.259656 63.373636V389.304408H176.999055a60.638084 60.638084 0 0 0-63.373637 54.369109c0 27.070573 0 63.373637 27.184555 81.439682l307.749675 343.653804a87.480695 87.480695 0 0 0 126.747274 0l307.749675-343.539822a126.120376 126.120376 0 0 0 27.184554-81.439683 77.678298 77.678298 0 0 0-63.373637-54.369109z"  horiz-adv-x="1024" />


    <glyph glyph-name="shaixuan-1" unicode="&#59319;" d="M966.540396 792.654896L614.043874 296.612092v-400.094168l-205.457464 152.175495v247.918673L55.952916 792.312467c-48.761905 0-55.610487 15.820225-55.610487 49.309791v11.64259C0.342429 886.754414 11.574104 896 60.47298 896h900.725522c48.830391 0 62.801498-9.245586 62.801498-42.735152v-11.64259c0-32.667737-11.574104-48.419476-57.459604-48.967362z m-764.712681 0l190.322098-260.862494 361.605136 150.668807 77.799893 109.577314h-630.069556z m412.216159-915.518459v-5.136437l-9.99893 5.136437z"  horiz-adv-x="1024" />


    <glyph glyph-name="shaixuan" unicode="&#59320;" d="M966.540396 792.654896L614.043874 296.612092v-400.094168l-205.457464 152.175495v247.918673L55.952916 792.312467c-48.761905 0-55.610487 15.820225-55.610487 49.309791v11.64259C0.342429 886.754414 11.574104 896 60.47298 896h900.725522c48.830391 0 62.801498-9.245586 62.801498-42.735152v-11.64259c0-32.667737-11.574104-48.419476-57.459604-48.967362z m-764.712681 0l190.322098-260.862494 361.605136 150.668807 77.799893 109.577314h-630.069556z m412.216159-915.518459v-5.136437l-9.99893 5.136437z"  horiz-adv-x="1024" />


    <glyph glyph-name="check" unicode="&#59321;" d="M0.000013-25.566144V793.633324A102.366676 102.366676 0 0 0 102.566234 896h819.132953a102.366676 102.366676 0 0 0 102.632736-102.366676v-819.199468a102.366676 102.366676 0 0 0-102.366676-102.366676H102.566234a102.366676 102.366676 0 0 0-102.566221 102.366676z m921.566144 844.741251H102.566234c-18.092096 0-25.608298-7.516202-25.608298-25.608298v-819.132953c0-18.092096 7.516202-25.608298 25.608298-25.608298h844.741251V793.566809c0 18.158611-7.516202 25.608298-25.608298 25.608298zM153.78283 691.200133V563.424704a38.379189 38.379189 0 0 1 76.824893 0V665.591835h102.366676a38.379189 38.379189 0 1 1 0 76.824894H204.93291a51.216596 51.216596 0 0 1-51.15008-51.216596z m716.766277 0V563.424704a38.379189 38.379189 0 0 0-76.824894 0V665.591835h-102.366676a38.379189 38.379189 0 1 0 0 76.824894h127.974974a51.216596 51.216596 0 0 0 51.216596-51.216596zM153.78283 76.867047v127.974974a38.379189 38.379189 0 0 0 76.824893 0v-102.366676h102.366676a38.445704 38.445704 0 0 0 1.330301-76.824893H204.93291a51.216596 51.216596 0 0 0-51.15008 51.216595z m665.549681-51.216595h-127.974974a38.445704 38.445704 0 1 0-1.330301 76.824893h103.696977v102.366676a38.379189 38.379189 0 0 0 76.824894 0v-127.974974a51.216596 51.216596 0 0 0-51.216596-51.216595z"  horiz-adv-x="1024" />


    <glyph glyph-name="ce-icon1" unicode="&#59322;" d="M896.839647 895.997193H128.841752A127.999649 127.999649 0 0 1 0 768.839647v-767.997895a129.473329 129.473329 0 0 1 128.841752-128.841752H896.839647a127.999649 127.999649 0 0 1 127.157546 128.841752V768.839647A126.315443 126.315443 0 0 1 896.839647 895.997193z m-0.842103-895.997544H127.999649V767.997544h767.997895z m-639.998246 449.121576h512.279298V320.560174h-512.279298z"  horiz-adv-x="1024" />


    <glyph glyph-name="lujing410" unicode="&#59323;" d="M920.130572 653.845584a102.794643 102.794643 0 0 1 17.545823 21.036616 134.579225 134.579225 0 0 1 9.186296 151.114556 138.988646 138.988646 0 0 1-125.39293 69.723981h-677.948585a130.996569 130.996569 0 0 1-38.490577-3.674518A139.356098 139.356098 0 0 1 0.031245 758.29376a129.434899 129.434899 0 0 1 42.624409-98.936399q130.353529-126.587148 258.410484-255.379006v-280.273867a45.931476 45.931476 0 0 1 65.9576-42.073232h0.64304a53.464238 53.464238 0 0 1 28.661241 50.249035V417.757798a63.661026 63.661026 0 0 1-17.637686 46.758242 6165.841335 6165.841335 0 0 0-123.555671 128.056955q-63.4773 67.51927-128.608132 133.293143l-2.296574 2.296574-2.664026 1.286082a24.711134 24.711134 0 0 0-3.031477 3.582655l-3.398929 4.133833a28.661241 28.661241 0 0 0-5.787366 29.57987c6.246681 14.238758 18.831905 30.4985 34.081155 30.4985h684.01154a28.844967 28.844967 0 0 0 22.598286-12.677087 43.359313 43.359313 0 0 0 7.808351-36.745181c-1.745396-6.797858-4.593148-9.829336-13.044539-18.37259-94.159526-91.219911-183.725904-181.153741-279.4471-276.32376l-0.551178-0.551178a63.017985 63.017985 0 0 1-20.669164-46.758242v-480.443239a51.718842 51.718842 0 0 1 12.217773-35.826551 33.62184 33.62184 0 0 1 19.658672-14.422484 55.852675 55.852675 0 0 1 38.858028 1.102356l5.052463 3.674518a59.159741 59.159741 0 0 1 19.658671 51.626979V385.697627c47.125694 46.941968 95.996785 92.689719 143.122479 136.875799s93.608348 87.545393 137.151388 131.272158z m105.18308-615.481778H766.719442a42.716273 42.716273 0 0 1-43.083725-43.175587v-12.12591a42.808136 42.808136 0 0 1 43.175588-43.175588h258.318621a42.808136 42.808136 0 0 1 43.175587 43.175588v12.217773a40.970877 40.970877 0 0 1-43.175587 43.175587z m0 155.064663H766.719442a42.716273 42.716273 0 0 1-43.083725-43.175588v-9.186295a42.716273 42.716273 0 0 1 43.175588-43.083724h258.318621a42.808136 42.808136 0 0 1 43.175587 43.175587v9.186295a42.716273 42.716273 0 0 1-43.175587 43.175588z m0 148.909845H766.719442a42.716273 42.716273 0 0 1-43.083725-43.175587v-5.971092a42.808136 42.808136 0 0 1 43.175588-43.175588h258.318621a42.808136 42.808136 0 0 1 43.175587 43.175588v5.971092a40.970877 40.970877 0 0 1-43.175587 43.175587z"  horiz-adv-x="1069" />


    <glyph glyph-name="shangchuan1" unicode="&#59325;" d="M562.541009-128H460.584682a56.990681 56.990681 0 1 0 0 113.981361H562.768972a56.990681 56.990681 0 1 0 0-113.981361z m284.041552 517.247417H625.857655v-226.139021a61.891879 61.891879 0 0 0-63.373637-63.373636H463.035281a61.891879 61.891879 0 0 0-63.259656 63.373636V389.304408H176.999055a60.638084 60.638084 0 0 0-63.373637 54.369109c0 27.070573 0 63.373637 27.184555 81.439682l307.749675 343.653804a87.480695 87.480695 0 0 0 126.747274 0l307.749675-343.539822a126.120376 126.120376 0 0 0 27.184554-81.439683 77.678298 77.678298 0 0 0-63.373637-54.369109z"  horiz-adv-x="1024" />


    <glyph glyph-name="ce-icon11" unicode="&#59326;" d="M128.832835-128A129.464368 129.464368 0 0 0 0 0.903005V768.847746A127.99079 127.99079 0 0 0 128.832835 895.996491h768.014911a126.306701 126.306701 0 0 0 127.148745-127.148745v-767.944741a127.99079 127.99079 0 0 0-127.148745-128.903005z m-0.842045 127.99079h767.944741V768.005701H127.99079zM449.090492 128.051751V320.599299H256.051751V448.870771H449.090492V639.944741h127.780279v-191.07397h191.14414V320.599299H576.870771v-192.82823z"  horiz-adv-x="1024" />


    <glyph glyph-name="delete11" unicode="&#59328;" d="M519.700327 896a193.416908 193.416908 0 0 1-193.225596-186.912284H82.551331a49.167305 49.167305 0 1 1 0-98.33461h54.332742v-550.88426a174.668286 174.668286 0 0 1 156.78057-187.868846h441.740495a174.381317 174.381317 0 0 1 156.78057 187.868846V610.274825h49.167305a49.167305 49.167305 0 1 1 0 98.33461H712.351985A192.651658 192.651658 0 0 1 519.700327 896zM411.800093 717.88809a100.821672 100.821672 0 0 0 200.304157 0zM299.212704-38.465764c-31.183933 0-65.428865 39.410369-65.428865 95.656236V606.639888h578.815881v-550.023354c0-56.245866-34.244932-95.656235-65.428865-95.656235H299.212704v0.573937zM367.224288 94.59206a46.967212 46.967212 0 0 1 44.480149 49.071649V423.840822a44.767118 44.767118 0 1 1-89.055955 0v-280.464082a46.584587 46.584587 0 0 1 44.575806-49.071649z m155.824007 0a46.967212 46.967212 0 0 1 44.575806 49.071649V423.840822a44.767118 44.767118 0 1 1-89.055955 0v-280.464082a46.967212 46.967212 0 0 1 44.575805-49.071649z m133.91873 0a46.967212 46.967212 0 0 1 44.001868 48.78468V423.553853a44.767118 44.767118 0 1 1-89.055955 0v-280.177113a46.584587 46.584587 0 0 1 44.767118-48.78468z"  horiz-adv-x="1024" />


    <glyph glyph-name="delete21" unicode="&#59329;" d="M519.700327 896a193.416908 193.416908 0 0 1-193.225596-186.912284H82.551331a49.167305 49.167305 0 1 1 0-98.33461h54.332742v-550.88426a174.668286 174.668286 0 0 1 156.78057-187.868846h441.740495a174.381317 174.381317 0 0 1 156.78057 187.868846V610.274825h49.167305a49.167305 49.167305 0 1 1 0 98.33461H712.351985A192.651658 192.651658 0 0 1 519.700327 896zM411.800093 717.88809a100.821672 100.821672 0 0 0 200.304157 0zM299.212704-38.465764c-31.183933 0-65.428865 39.410369-65.428865 95.656236V606.639888h578.815881v-550.023354c0-56.245866-34.244932-95.656235-65.428865-95.656235H299.212704v0.573937zM367.224288 94.59206a46.967212 46.967212 0 0 1 44.480149 49.071649V423.840822a44.767118 44.767118 0 1 1-89.055955 0v-280.464082a46.584587 46.584587 0 0 1 44.575806-49.071649z m155.824007 0a46.967212 46.967212 0 0 1 44.575806 49.071649V423.840822a44.767118 44.767118 0 1 1-89.055955 0v-280.464082a46.967212 46.967212 0 0 1 44.575805-49.071649z m133.91873 0a46.967212 46.967212 0 0 1 44.001868 48.78468V423.553853a44.767118 44.767118 0 1 1-89.055955 0v-280.177113a46.584587 46.584587 0 0 1 44.767118-48.78468z"  horiz-adv-x="1024" />


    <glyph glyph-name="icon-1" unicode="&#59330;" d="M708.848717 208.571655a51.730759 51.730759 0 0 1-11.176399 71.289457 458.711331 458.711331 0 0 1-87.096077 48.856828 308.548432 308.548432 0 1 1-338.644878-1.037808A439.072802 439.072802 0 0 1 2.580157-77.06516a50.772782 50.772782 0 0 1 50.932445-50.932445 50.453456 50.453456 0 0 1 50.932445 50.932445 337.607069 337.607069 0 0 0 534.152022 273.901597 50.054299 50.054299 0 0 1 70.251648 11.735218zM440.535319 794.69393a208.280171 208.280171 0 1 0-208.280171-207.561688 208.519665 208.519665 0 0 0 208.280171 207.561688zM1007.737548 225.416085l-14.768813 14.289824a44.226606 44.226606 0 0 1-58.596261 0l-225.523757-224.645612c-17.323418-14.768812-76.398668-102.822867-61.071035-119.747128l14.768812-14.768812c14.768812-17.323418 102.822867 43.827449 119.747128 61.071035l225.603589 225.603589a38.159418 38.159418 0 0 1 0 58.037441z"  horiz-adv-x="1024" />


    <glyph glyph-name="icon-2-1" unicode="&#59333;" d="M794.884311-28.121387h66.611833a49.939306 49.939306 0 0 1 49.939307 49.939306V646.372349a49.939306 49.939306 0 0 1-49.939307 49.939307v-599.193403a149.817919 149.817919 0 0 0-59.958478-119.838681l-6.653355-5.009585z m58.079883 823.920282h8.453675a149.817919 149.817919 0 0 0 149.81792-149.426546v-624.163056a149.817919 149.817919 0 0 0-149.81792-149.817919H162.267579a149.817919 149.817919 0 0 0-149.81792 149.817919V646.372349a149.817919 149.817919 0 0 0 149.81792 149.426546h8.53195A149.817919 149.817919 0 0 0 402.101489 865.54172l99.878613-74.90896q5.24441-3.913739 10.019172-7.827478 4.774761 4.305113 10.019171 7.827478L621.818783 865.54172a149.817919 149.817919 0 0 0 231.145411-69.899375zM561.860305 670.950629v-649.13271a49.939306 49.939306 0 0 1 79.918546-39.920135l99.878613 74.90896a49.939306 49.939306 0 0 1 19.960067 39.920135V745.859589a49.939306 49.939306 0 0 1-79.918545 39.920135l-99.878613-74.90896a49.939306 49.939306 0 0 1-19.960068-39.920135z m-99.878613 0a49.939306 49.939306 0 0 1-19.960067 39.920135l-99.722064 74.90896a49.939306 49.939306 0 0 1-79.918545-39.920135v-649.13271a49.939306 49.939306 0 0 1 19.960068-39.920135l99.878613-74.90896a49.939306 49.939306 0 0 1 79.918545 39.920135z m-299.714113 24.969653a49.939306 49.939306 0 0 1-49.939307-49.939306v-624.163057a49.939306 49.939306 0 0 1 49.939307-49.939306h66.611833l-6.653356 5.009586a149.817919 149.817919 0 0 0-59.958477 119.83868z"  horiz-adv-x="1024" />


    <glyph glyph-name="human" unicode="&#59334;" d="M514.342766-128c-132.527378 11.13107-254.60016 21.155182-376.611445 31.978764a157.433916 157.433916 0 0 0-43.048336 10.639089 42.43336 42.43336 0 0 0-29.088376 52.764961c12.853003 62.1126 24.107068 124.532687 38.743503 186.214803a118.013939 118.013939 0 0 0 88.126094 91.07798c55.962837 15.435903 112.233162 29.641854 168.257497 44.831767a67.155405 67.155405 0 0 1 28.842385 104.54596 274.709883 274.709883 0 0 0-83.452275 156.449954 28.71939 28.71939 0 0 1-3.320871 12.299524c-59.345206 83.759763-25.152528 167.950009 4.489326 248.634891A116.845484 116.845484 0 0 0 376.096109 871.151885a466.397975 466.397975 0 0 0 157.679906 24.59905c55.347861-2.767393 101.286586-43.72481 156.01947-58.48424 29.395864-7.933193 38.927996-45.385246 40.403939-77.302513 1.660436-35.914612 2.398407-71.890722 1.475943-107.805333-0.553479-21.21668 3.382369-44.831767-23.000112-57.992259-6.149762-2.951886-6.580246-19.064263-7.50271-29.272869a253.001222 253.001222 0 0 0-59.529699-150.177196 83.882758 83.882758 0 0 1 37.882536-125.024668c63.773035-22.26214 126.992592-46.184715 190.642632-68.508352a89.909525 89.909525 0 0 0 63.588543-78.962948c7.810198-56.516316 17.157837-112.848139 24.599049-169.48745 5.473288-43.048336-3.259374-57.500278-46.615199-62.235595-135.294771-14.820927-271.204519-26.505476-397.397641-38.497512z m67.647386 357.178196c-11.008075-23.492092-30.133835-45.200753-28.719391-65.494969a644.433594 644.433594 0 0 1 26.812964-112.417655c4.427829 2.828891 7.133724 3.566862 7.748701 5.104303 10.393098 26.320983 20.663201 52.703463 30.748811 79.147441 21.278178 56.577813 21.21668 56.577813-36.529588 93.66088z m-119.797371-176.805667l8.117687 1.844929a471.133292 471.133292 0 0 0 16.604358 70.722267 89.725032 89.725032 0 0 1-31.240793 106.267893c-14.082956-16.665856-42.43336-36.345095-39.665967-49.198099a919.881449 919.881449 0 0 1 46.184715-129.63699z"  horiz-adv-x="1024" />


    <glyph glyph-name="excel" unicode="&#59336;" d="M902.327987-26.707634a48.700078 48.700078 0 0 0-48.79501-48.573503H170.434475a48.95323 48.95323 0 0 0-34.491933 14.239789 48.446927 48.446927 0 0 0-14.303077 34.333714V847.425548A48.700078 48.700078 0 0 0 170.434475 895.999051h419.219389a48.889942 48.889942 0 0 0 34.650153-14.081569l264.037333-262.644998a48.446927 48.446927 0 0 0 14.144857-34.491933zM902.327987-23.005289V-75.471a54.617502 54.617502 0 0 0-14.303077-37.08674 47.181168 47.181168 0 0 0-34.523577-15.378972H170.434475A50.630361 50.630361 0 0 0 121.639465-75.471v52.465711a54.554214 54.554214 0 0 1 14.303077-37.086739 47.086236 47.086236 0 0 1 34.491933-15.378972h683.225078a47.11788 47.11788 0 0 1 34.523577 15.378972 54.490926 54.490926 0 0 1 14.144857 37.086739zM24.365884 358.557769h975.235684v-241.601754a48.098843 48.098843 0 0 0-14.271433-34.175493 48.984874 48.984874 0 0 0-34.491933-14.144858H73.224182a48.984874 48.984874 0 0 0-34.460289 14.144858 48.098843 48.098843 0 0 0-14.271433 34.175493zM182.743982 266.63202h109.361579v-28.194782H223.627998v-20.979956h63.509459v-26.929024H223.627998v-26.042991h70.43949v-29.903557H182.712338v132.05031z m124.234248 0h44.966089l23.416542-40.630865 22.688731 40.630865h44.491429l-41.137168-63.952475 44.96609-68.097835h-45.852121l-26.042992 42.434571-26.10628-42.434571H302.769581l45.598969 68.825647z m240.494215-78.097332l35.757692-10.82224a66.072621 66.072621 0 0 0-11.360187-25.125316 49.364602 49.364602 0 0 0-19.239537-15.220753 71.768537 71.768537 0 0 0-29.239034-5.157968 84.995718 84.995718 0 0 0-35.188101 6.328796 55.788329 55.788329 0 0 0-23.543118 22.150782 74.679782 74.679782 0 0 0-9.904564 40.346069 68.604139 68.604139 0 0 0 17.435831 50.408854 66.452349 66.452349 0 0 0 49.332958 17.625694 67.053584 67.053584 0 0 0 39.238529-10.094428 59.332454 59.332454 0 0 0 21.233108-31.011096l-36.042488-8.005926a31.643976 31.643976 0 0 1-3.955497 8.828669 23.448186 23.448186 0 0 1-8.385654 7.214826 25.758196 25.758196 0 0 1-32.340143-8.638805 47.465963 47.465963 0 0 1-5.56934-26.042992 49.58611 49.58611 0 0 1 6.645235-30.125065 26.296144 26.296144 0 0 1 36.45386-1.550554 40.599221 40.599221 0 0 1 8.702094 18.986385z m55.503533 78.097332h109.36158v-28.194782h-68.572496v-20.979956h63.509459v-26.929024h-63.509459v-26.042991H714.204552v-29.903557h-111.35515z m133.316069 0h40.820729v-99.551947h63.699322v-32.530007h-104.425119zM121.860973 357.545162v92.242189l-97.463445-92.242189z m779.770847 0l0.980963 92.242189 96.988785-92.242189h-98.096324zM907.359379 573.546939v-7.024962h-266.948578a49.839262 49.839262 0 0 0-49.332958 50.313921V895.999051a48.889942 48.889942 0 0 0 35.029881-14.587873l267.423238-272.13819a50.820225 50.820225 0 0 0 13.828417-35.726049z"  horiz-adv-x="1024" />


    <glyph glyph-name="more-1-1" unicode="&#59337;" d="M636.810405 383.926759L221.693651 787.534291a62.516008 62.516008 0 0 0 0 89.632435 66.178033 66.178033 0 0 0 92.248168 0l507.364922-493.239967-507.364922-493.239966a66.178033 66.178033 0 0 0-92.248168 0 62.516008 62.516008 0 0 0 0 89.632435z"  horiz-adv-x="1024" />


    <glyph glyph-name="icon-1-1" unicode="&#59338;" d="M708.848717 208.571655a51.730759 51.730759 0 0 1-11.176399 71.289457 458.711331 458.711331 0 0 1-87.096077 48.856828 308.548432 308.548432 0 1 1-338.644878-1.037808A439.072802 439.072802 0 0 1 2.580157-77.06516a50.772782 50.772782 0 0 1 50.932445-50.932445 50.453456 50.453456 0 0 1 50.932445 50.932445 337.607069 337.607069 0 0 0 534.152022 273.901597 50.054299 50.054299 0 0 1 70.251648 11.735218zM440.535319 794.69393a208.280171 208.280171 0 1 0-208.280171-207.561688 208.519665 208.519665 0 0 0 208.280171 207.561688zM1007.737548 225.416085l-14.768813 14.289824a44.226606 44.226606 0 0 1-58.596261 0l-225.523757-224.645612c-17.323418-14.768812-76.398668-102.822867-61.071035-119.747128l14.768812-14.768812c14.768812-17.323418 102.822867 43.827449 119.747128 61.071035l225.603589 225.603589a38.159418 38.159418 0 0 1 0 58.037441z"  horiz-adv-x="1024" />


    <glyph glyph-name="00_icon_sele_02" unicode="&#58963;" d="M512 384m512 0a512 512 0 1 1-1024 0 512 512 0 1 1 1024 0ZM536.832 547.84a27.5968 27.5968 0 0 1-7.2704 14.592 27.1872 27.1872 0 0 1-32.768 0L289.28 354.9184a27.1872 27.1872 0 0 1 0-32.768 27.1872 27.1872 0 0 1 32.768 0l207.5136 207.4624a27.8016 27.8016 0 0 1 7.2704 18.2272zM744.3456 340.3264a18.944 18.944 0 0 1-7.2704 14.592l-207.5136 207.5136a27.1872 27.1872 0 0 1-32.768 0 27.1872 27.1872 0 0 1 0-32.768l207.4624-207.5136a27.1872 27.1872 0 0 1 32.768 0 27.8016 27.8016 0 0 1 7.3216 18.176z"  horiz-adv-x="1024" />


    <glyph glyph-name="back-icon" unicode="&#58965;" d="M0 440.754073l505.538954-455.003258v303.335505c304.427513 0 606.671011-168.411873 707.803069-417.08632v12.13342A707.98507 707.98507 0 0 1 505.538954 592.300492v303.335505L0.121334 440.268736z"  horiz-adv-x="1213" />


    <glyph glyph-name="all-icon" unicode="&#58969;" d="M476.342733 809.039975A86.886887 86.886887 0 0 1 389.382709 896H86.960756A86.886887 86.886887 0 0 1 0.000731 809.039975v-302.202541A86.886887 86.886887 0 0 1 86.960756 419.87741h302.202541A86.886887 86.886887 0 0 1 476.123322 506.837434V809.039975z m558.9138 0A86.886887 86.886887 0 0 1 948.296508 896H645.874556a86.886887 86.886887 0 0 1-86.960025-86.960025v-302.202541A86.886887 86.886887 0 0 1 645.874556 419.87741h302.202541a86.886887 86.886887 0 0 1 86.960024 86.960024V809.039975zM476.342733 269.580647a86.886887 86.886887 0 0 1-86.960024 86.960025H86.960756A86.886887 86.886887 0 0 1 0.000731 269.580647V-32.841305a86.886887 86.886887 0 0 1 86.960025-86.960025h302.202541A86.886887 86.886887 0 0 1 476.123322-32.841305V269.361236z m320.779367 78.841806a238.207569 238.207569 0 1 1 238.20757-238.20757A238.426981 238.426981 0 0 1 797.195238 348.422453z"  horiz-adv-x="1035" />


    <glyph glyph-name="fold" unicode="&#58972;" d="M951.296 896H72.704A73.142857 73.142857 0 0 1 0 823.296v-878.592A73.142857 73.142857 0 0 1 72.704-128h878.592a73.142857 73.142857 0 0 1 72.704 72.704V823.296A73.142857 73.142857 0 0 1 951.296 896zM950.857143-18.285714a36.571429 36.571429 0 0 0-36.571429-36.571429h-804.571428a36.571429 36.571429 0 0 0-36.571429 36.571429v804.571428a36.571429 36.571429 0 0 0 36.571429 36.571429h804.571428a36.571429 36.571429 0 0 0 36.571429-36.571429zM220.745143 384c0 24.137143 14.628571 43.885714 32.182857 43.885714h518.217143c17.700571 0 32.182857-19.821714 32.182857-43.885714s-14.628571-43.885714-32.182857-43.885714H252.928c-17.700571 0-32.182857 19.163429-32.182857 43.885714z"  horiz-adv-x="1024" />


    <glyph glyph-name="00_icon_sele_01" unicode="&#58973;" d="M487.168 220.16a27.5968 27.5968 0 0 1 7.2704-14.592 27.1872 27.1872 0 0 1 32.768 0l207.5136 207.5136a27.1872 27.1872 0 0 1 0 32.768 27.1872 27.1872 0 0 1-32.768 0l-207.5136-207.4624a27.8016 27.8016 0 0 1-7.2704-18.2272zM279.6544 427.6736a18.944 18.944 0 0 1 7.2704-14.592l207.5136-207.5136a27.1872 27.1872 0 0 1 32.768 0 27.1872 27.1872 0 0 1 0 32.768L319.744 445.8496a27.1872 27.1872 0 0 1-32.768 0 27.8016 27.8016 0 0 1-7.3216-18.176z"  horiz-adv-x="1024" />


    <glyph glyph-name="ce-biaoqian-1" unicode="&#58976;" d="M512-110.933333a491.690667 491.690667 0 0 0-349.969067 144.964266A491.690667 491.690667 0 0 0 17.066667 384c0 132.1984 51.473067 256.477867 144.964266 349.969067A491.690667 491.690667 0 0 0 512 878.933333c132.1984 0 256.477867-51.473067 349.969067-144.964266A491.690667 491.690667 0 0 0 1006.933333 384c0-132.1984-51.473067-256.477867-144.964266-349.969067A491.690667 491.690667 0 0 0 512-110.933333zM512 861.866667c-127.658667 0-247.637333-49.698133-337.92-139.946667A474.7264 474.7264 0 0 1 34.133333 384c0-127.658667 49.698133-247.637333 139.946667-337.92A474.7264 474.7264 0 0 1 512-93.866667c127.658667 0 247.637333 49.698133 337.92 139.946667A474.7264 474.7264 0 0 1 989.866667 384c0 127.658667-49.698133 247.637333-139.946667 337.92A474.7264 474.7264 0 0 1 512 861.866667m0 34.133333c282.760533 0 512-229.239467 512-512 0-282.760533-229.239467-512-512-512-282.760533 0-512 229.239467-512 512C0 666.760533 229.239467 896 512 896zM538.112 571.8016H339.831467a16.725333 16.725333 0 0 1-15.5648-15.5648v-198.280533a27.613867 27.613867 0 0 1 3.8912-11.6736l204.117333-202.171734a55.159467 55.159467 0 0 1 77.755733 0l141.960534 141.824a55.159467 55.159467 0 0 1 0 77.653334l-202.171734 204.117333a27.648 27.648 0 0 1-11.6736 3.8912z m-75.810133-138.0352a38.5024 38.5024 0 1 0 0 54.442667 37.546667 37.546667 0 0 0 0-54.510934z"  horiz-adv-x="1024" />


    <glyph glyph-name="blod" unicode="&#58977;" d="M195.2 685.44h313.92c68.16 0 121.92-16.32 160.32-48.96 35.52-30.72 53.76-72 53.76-123.84 0-38.4-9.6-71.04-27.84-97.92-18.24-24.96-44.16-43.2-78.72-56.64 45.12-8.64 78.72-26.88 101.76-54.72 22.08-26.88 33.6-64.32 33.6-110.4 0-69.12-24-120-71.04-152.64C640.64 13.44 583.04 0 510.08 0H195.2V685.44z m112.32-92.16v-195.84h171.84c48 0 81.6 8.64 101.76 24 19.2 16.32 29.76 42.24 29.76 77.76 0 32.64-10.56 56.64-29.76 71.04-21.12 15.36-53.76 23.04-99.84 23.04H307.52z m0-288v-213.12h186.24c42.24 0 75.84 6.72 99.84 20.16 30.72 17.28 46.08 44.16 46.08 82.56 0 39.36-11.52 67.2-33.6 84.48-23.04 17.28-59.52 25.92-109.44 25.92H307.52z"  horiz-adv-x="1024" />


    <glyph glyph-name="ce-biaoqian-2" unicode="&#58978;" d="M0 384a512 512 0 1 1 1024 0 512 512 0 1 1-1024 0ZM538.2144 576.034133h-198.280533a16.725333 16.725333 0 0 1-15.5648-15.5648v-198.280533a27.613867 27.613867 0 0 1 3.8912-11.6736l204.117333-202.171733a55.159467 55.159467 0 0 1 77.755733 0l141.960534 141.824a55.159467 55.159467 0 0 1 0 77.653333l-202.171734 204.117333a27.648 27.648 0 0 1-11.6736 3.8912z m-75.810133-138.0352a38.5024 38.5024 0 1 0 0 54.442667 37.546667 37.546667 0 0 0 0-54.510933z"  horiz-adv-x="1024" />


    <glyph glyph-name="cente-icon-1" unicode="&#58979;" d="M1097.142857 18.285714H73.142857a73.142857 73.142857 0 0 1 0-146.285714h1024a73.142857 73.142857 0 0 1 0 146.285714z m0 877.714286H73.142857a73.142857 73.142857 0 0 1 0-146.285714h1024a73.142857 73.142857 0 0 1 0 146.285714z m-232.199546-438.857143h-585.142857a73.142857 73.142857 0 1 1 0-146.285714h585.142857a73.142857 73.142857 0 1 1 0 146.285714z"  horiz-adv-x="1170" />


    <glyph glyph-name="ce-fuwu-1" unicode="&#58980;" d="M0 384a512 512 0 1 1 1024 0 512 512 0 1 1-1024 0ZM459.844267 85.947733a20.48 20.48 0 0 0-20.2752 20.2752v88.098134a282.794667 282.794667 0 0 0-166.161067 190.498133 20.2752 20.2752 0 1 0 39.5264 9.1136 241.595733 241.595733 0 0 1 154.0096-166.161067 19.797333 19.797333 0 0 0 13.175467-19.2512v-102.4a20.48 20.48 0 0 0-20.2752-20.1728z m121.582933 0a20.48 20.48 0 0 0-20.2752 20.2752v102.4a19.797333 19.797333 0 0 0 13.175467 19.2512 241.595733 241.595733 0 0 1 154.0096 166.161067 20.2752 20.2752 0 0 0 39.5264-9.1136 278.971733 278.971733 0 0 0-166.161067-190.498133v-88.1664a20.48 20.48 0 0 0-20.2752-20.309334z m27.306667 562.346667a109.226667 109.226667 0 0 1-88.1664-46.626133 109.226667 109.226667 0 0 1-88.098134 46.626133 119.466667 119.466667 0 0 1-113.493333-124.6208 158.993067 158.993067 0 0 1 33.450667-92.16 829.2352 829.2352 0 0 1 155.0336-154.0096 22.9376 22.9376 0 0 1 29.3888 0 826.88 826.88 0 0 1 155.0336 154.0096 161.757867 161.757867 0 0 1 33.450666 92.16 123.835733 123.835733 0 0 1-116.5312 124.6208z m45.602133-115.5072c-1.024 0-3.037867-1.024-4.061867-1.024a15.223467 15.223467 0 0 0-14.199466 10.24 34.679467 34.679467 0 0 1-30.4128 26.350933 14.2336 14.2336 0 1 0 2.013866 28.3648 63.863467 63.863467 0 0 0 55.739734-46.626133 13.277867 13.277867 0 0 0-9.045334-17.3056z"  horiz-adv-x="1024" />


    <glyph glyph-name="ce-kehuqun-1" unicode="&#58981;" d="M512 384m-512 0a512 512 0 1 1 1024 0 512 512 0 1 1-1024 0ZM562.551467 365.2608l-34.7136-39.253333-34.7136 39.253333c-104.311467-18.807467-184.046933-121.002667-184.046934-244.258133h437.521067c0 123.255467-79.735467 225.450667-184.046933 244.258133zM437.930667 564.4288a35.293867 35.293867 0 0 0 0.6144 41.847467c17.3056 20.718933 86.6304 3.618133 120.5248 9.216a162.065067 162.065067 0 0 1 58.197333 20.241066q25.361067-41.198933-9.591467-59.835733a125.0304 125.0304 0 0 0 35.908267-88.4736 116.053333 116.053333 0 1 0-231.6288 0 125.713067 125.713067 0 0 0 25.9072 77.0048z m89.9072-418.986667l-34.440534 42.734934 34.542934 128.238933 34.542933-128.341333-34.542933-42.666667z"  horiz-adv-x="1024" />


    <glyph glyph-name="cente-icon-2" unicode="&#58983;" d="M1097.142857 18.285714H73.142857a73.142857 73.142857 0 0 1 0-146.285714h1024a73.142857 73.142857 0 0 1 0 146.285714z m0 877.714286H73.142857a73.142857 73.142857 0 0 1 0-146.285714h1024a73.142857 73.142857 0 0 1 0 146.285714z m-232.199546-438.857143h-585.142857a73.142857 73.142857 0 1 1 0-146.285714h585.142857a73.142857 73.142857 0 1 1 0 146.285714z"  horiz-adv-x="1170" />


    <glyph glyph-name="ce-fuwu-2" unicode="&#58985;" d="M512 384m-512 0a512 512 0 1 1 1024 0 512 512 0 1 1-1024 0ZM459.844267 85.947733a20.48 20.48 0 0 0-20.2752 20.2752v88.098134a282.794667 282.794667 0 0 0-166.161067 190.498133 20.2752 20.2752 0 1 0 39.5264 9.1136 241.595733 241.595733 0 0 1 154.0096-166.161067 19.797333 19.797333 0 0 0 13.175467-19.2512v-102.4a20.48 20.48 0 0 0-20.2752-20.1728z m121.582933 0a20.48 20.48 0 0 0-20.2752 20.2752v102.4a19.797333 19.797333 0 0 0 13.175467 19.2512 241.595733 241.595733 0 0 1 154.0096 166.161067 20.2752 20.2752 0 0 0 39.5264-9.1136 278.971733 278.971733 0 0 0-166.161067-190.498133v-88.1664a20.48 20.48 0 0 0-20.2752-20.309334z m27.306667 562.346667a109.226667 109.226667 0 0 1-88.1664-46.626133 109.226667 109.226667 0 0 1-88.098134 46.626133 119.466667 119.466667 0 0 1-113.493333-124.6208 158.993067 158.993067 0 0 1 33.450667-92.16 829.2352 829.2352 0 0 1 155.0336-154.0096 22.9376 22.9376 0 0 1 29.3888 0 826.88 826.88 0 0 1 155.0336 154.0096 161.757867 161.757867 0 0 1 33.450666 92.16 123.835733 123.835733 0 0 1-116.5312 124.6208z m45.602133-115.5072c-1.024 0-3.037867-1.024-4.061867-1.024a15.223467 15.223467 0 0 0-14.199466 10.24 34.679467 34.679467 0 0 1-30.4128 26.350933 14.2336 14.2336 0 1 0 2.013866 28.3648 63.863467 63.863467 0 0 0 55.739734-46.626133 13.277867 13.277867 0 0 0-9.045334-17.3056z"  horiz-adv-x="1024" />


    <glyph glyph-name="com-icon2" unicode="&#58986;" d="M102.767951 583.693879h828.405219v-83.273025H102.767951v-374.405851a25.240119 25.240119 0 0 1 5.874298-16.912816h435.085419a43.379436 43.379436 0 0 0 0-86.69432H107.609406A97.668285 97.668285 0 0 0 16.138183 125.885898V776.254681A97.668285 97.668285 0 0 0 107.609406 879.861817h850.15949a97.668285 97.668285 0 0 0 91.213012-103.284373v-325.216667a43.314884 43.314884 0 1 0-86.629768 0V776.577444a25.240119 25.240119 0 0 1-5.874298 16.848264S107.673958 792.715628 107.222089 792.0701a25.433777 25.433777 0 0 1-4.583244-15.492656v-192.560801z m808.974847-462.649436v101.79966a43.379436 43.379436 0 0 0 86.758873 0v-101.864213h100.314946a43.573095 43.573095 0 0 0 0-87.146189h-100.250394v-102.445187a43.379436 43.379436 0 0 0-86.758873 0v102.50974h-103.865347a43.573095 43.573095 0 0 0 0 87.146189h103.865347z"  horiz-adv-x="1158" />


    <glyph glyph-name="com-icon1" unicode="&#58987;" d="M358.632169 691.281942h-102.427314a51.213657 51.213657 0 0 1 0-102.427314h102.427314a51.213657 51.213657 0 0 1 0 102.427314z m0-204.854628h-102.427314a51.213657 51.213657 0 0 1 0-102.427314h102.427314a51.213657 51.213657 0 0 1 0 102.427314z m0-204.854628h-102.427314a51.213657 51.213657 0 0 1 0-102.427314h102.427314a51.213657 51.213657 0 0 1 0 102.427314zM972.786343-25.572686V537.572686a51.213657 51.213657 0 0 1-51.213657 51.213657H563.281942V844.786343a51.213657 51.213657 0 0 1-51.213657 51.213657h-409.709256a51.213657 51.213657 0 0 1-51.213657-51.213657v-870.290744a51.213657 51.213657 0 0 1 0-102.427314h921.845826a51.213657 51.213657 0 0 1 0 102.427314z m-819.418512 819.418512h307.281942v-819.418512h-307.281942z m409.709256-819.418512v512.13657h307.281942v-512.13657h-307.281942z"  horiz-adv-x="1024" />


    <glyph glyph-name="chanpin-icon-1" unicode="&#58989;" d="M1023.862322 106.648501a234.648501 234.648501 0 1 0-469.297001 0v170.720208a63.974185 63.974185 0 0 0 64.020078 64.020078H789.351499a234.648501 234.648501 0 0 0 234.510823-234.740286zM0 106.648501a234.648501 234.648501 0 0 0 234.648501 234.648501h170.628423a63.974185 63.974185 0 0 0 64.020078-64.020078V106.648501A234.648501 234.648501 0 1 0 0 106.648501zM1023.862322 661.351499a234.648501 234.648501 0 0 0-234.510823-234.648501h-170.720208a63.974185 63.974185 0 0 0-64.020078 64.020078V661.351499a234.648501 234.648501 0 1 0 469.297002 0zM0 661.351499a234.648501 234.648501 0 1 0 469.297002 0v-170.628423a63.974185 63.974185 0 0 0-64.020078-64.020078H234.648501A234.648501 234.648501 0 0 0 0 661.351499z"  horiz-adv-x="1024" />


    <glyph glyph-name="delete2" unicode="&#58992;" d="M1024 384v-0.546133A512 512 0 1 0 512 896a33.3824 33.3824 0 0 0 0-66.7648 445.2352 445.2352 0 1 1 445.0304-445.508267 33.3824 33.3824 0 1 0 66.7648 0zM535.278933 428.168533L334.097067 629.3504a38.843733 38.843733 0 0 1-54.613334-54.613333L480.597333 373.5552l-201.1136-201.1136a38.843733 38.843733 0 0 1 54.613334-54.613333l201.250133 201.1136 201.181867-201.181867a38.843733 38.843733 0 0 1 54.613333 54.613333L590.0288 373.623467l201.181867 201.181866a38.843733 38.843733 0 0 1-54.613334 54.613334L535.3472 428.305067z"  horiz-adv-x="1024" />


    <glyph glyph-name="com-icon4" unicode="&#58994;" d="M589.450611 804.422764a47.394661 47.394661 0 0 0-9.505153-3.474297 176.99251 176.99251 0 0 0-48.181294-13.110556 57.096473 57.096473 0 0 0-29.170988 3.998719 323.56853 323.56853 0 0 1-109.014276 24.844504 135.759811 135.759811 0 0 1-97.542539-45.231419L383.024902 669.842904a57.096473 57.096473 0 0 0-7.407464-81.482108 784.601242 784.601242 0 0 1-106.326612-104.360028 670.473849 670.473849 0 0 1-99.640227-160.800973 539.827156 539.827156 0 0 1-45.886948-217.307471 159.55547 159.55547 0 0 1 159.162154-159.0966h457.689521a159.55547 159.55547 0 0 1 159.162153 159.162153 540.023814 540.023814 0 0 1-45.886947 217.373024 664.967416 664.967416 0 0 1-100.426861 160.932078v0.327764a768.934127 768.934127 0 0 1-109.34204 107.637667 57.096473 57.096473 0 0 0-11.602842 76.368991l84.694194 125.074707a93.150503 93.150503 0 0 1-62.930671 27.794379 171.420524 171.420524 0 0 1-64.831701-17.043723zM653.233468 886.167083h0.458869a157.326676 157.326676 0 0 0 111.439729-48.77127 60.308559 60.308559 0 0 0 10.881762-72.108059l-1.704373-2.753217-83.90756-124.550285a831.995903 831.995903 0 0 0 113.078548-112.226362 730.389092 730.389092 0 0 0 110.325331-176.99251 608.526471 608.526471 0 0 0 51.000064-243.266372 224.059407 224.059407 0 0 0-223.928301-223.928302H283.122463A224.059407 224.059407 0 0 0 59.194162 105.499008a608.526471 608.526471 0 0 0 51.065617 243.266372 736.026631 736.026631 0 0 0 109.407592 176.468088 847.531912 847.531912 0 0 0 109.079828 108.030984L241.955317 734.674605l-2.359901 3.212086a60.636323 60.636323 0 0 0 6.948595 75.057935A200.525959 200.525959 0 0 0 394.365534 881.185071a390.03905 390.03905 0 0 0 131.105563-29.105435 112.488573 112.488573 0 0 1 33.563024 10.422893l3.408744 0.786633A237.235516 237.235516 0 0 0 653.233468 886.167083zM631.928814 333.163818a21.697971 21.697971 0 0 0 21.632418-21.697971v-29.039882a21.763523 21.763523 0 0 0-21.697971-21.632418H546.710198a6.555278 6.555278 0 0 1-6.555278-6.555278v-16.060431a6.555278 6.555278 0 0 1 6.555278-6.555279h85.218616a21.763523 21.763523 0 0 0 21.632418-21.69797v-29.039883a21.763523 21.763523 0 0 0-21.697971-21.632417H546.710198a6.555278 6.555278 0 0 1-6.555278-6.555279v-44.510338a21.763523 21.763523 0 0 0-21.697971-21.632418h-29.039882a21.763523 21.763523 0 0 0-21.632418 21.697971v44.444785a6.555278 6.555278 0 0 1-6.555278 6.555279h-85.218616a21.763523 21.763523 0 0 0-21.632418 21.632417v29.039883a21.763523 21.763523 0 0 0 21.697971 21.69797h85.218616a6.555278 6.555278 0 0 1 6.555278 6.555279V254.238269a6.555278 6.555278 0 0 1-6.555278 6.555278h-85.218616a21.763523 21.763523 0 0 0-21.632418 21.763524v29.105435a21.763523 21.763523 0 0 0 21.69797 21.632418h80.433263L373.454196 416.219192a21.697971 21.697971 0 0 0 0 30.613149l20.649126 20.583573a21.763523 21.763523 0 0 0 30.678702 0L499.053326 393.144613a6.555278 6.555278 0 0 1 8.980731 0l74.336854 74.336854a21.763523 21.763523 0 0 0 30.678702 0l20.51802-20.583573a21.763523 21.763523 0 0 0 0-30.613149L550.643365 333.360476h81.285449z"  horiz-adv-x="1024" />


    <glyph glyph-name="chanpin-icon-2" unicode="&#58995;" d="M1023.862322 106.648501a234.648501 234.648501 0 1 0-469.297001 0v170.720208a63.974185 63.974185 0 0 0 64.020078 64.020078H789.351499a234.648501 234.648501 0 0 0 234.510823-234.740286z m-85.314211 0a149.426074 149.426074 0 0 1-149.196612 149.426074h-149.426074V106.648501a149.334289 149.334289 0 1 1 298.622686 0zM0 106.648501a234.648501 234.648501 0 0 0 234.648501 234.648501h170.628423a63.974185 63.974185 0 0 0 64.020078-64.020078V106.648501A234.648501 234.648501 0 1 0 0 106.648501z m85.314211 0a149.334289 149.334289 0 1 1 298.622687 0v149.426074H234.648501A149.426074 149.426074 0 0 1 85.314211 106.648501zM1023.862322 661.351499a234.648501 234.648501 0 0 0-234.510823-234.648501h-170.720208a63.974185 63.974185 0 0 0-64.020078 64.020078V661.351499a234.648501 234.648501 0 1 0 469.297002 0z m-85.314211 0a149.334289 149.334289 0 0 1-298.622686 0v-149.288397H789.351499a149.426074 149.426074 0 0 1 149.196612 149.288397zM0 661.351499a234.648501 234.648501 0 1 0 469.297002 0v-170.628423a63.974185 63.974185 0 0 0-64.020078-64.020078H234.648501A234.648501 234.648501 0 0 0 0 661.351499z m85.314211 0a149.426074 149.426074 0 0 1 149.33429-149.288397h149.288397V661.351499a149.334289 149.334289 0 1 1-298.622687 0z"  horiz-adv-x="1024" />


    <glyph glyph-name="com-icon6" unicode="&#58996;" d="M762.292116 49.309079a407.878351 407.878351 0 0 0-504.347781 0 43.867923 43.867923 0 0 1-61.935107-7.533549 44.601278 44.601278 0 0 1 7.533549-62.468456 491.880757 491.880757 0 0 1 613.350903 0 44.334603 44.334603 0 0 1-54.401558 70.068674z m-29.934191 767.488652a44.334603 44.334603 0 0 1-40.001146-79.202269 408.078356 408.078356 0 0 0 227.406514-367.477193 44.401272 44.401272 0 0 1 44.201267-44.201266v0.533348a44.401272 44.401272 0 0 1 44.201266 44.201267 496.280883 496.280883 0 0 1-275.807901 446.146113zM60.272006 301.182961a44.46794 44.46794 0 0 1 42.001203 46.668003V370.651618a410.078414 410.078414 0 0 0 242.473613 373.344028c1.066697 0.533349 1.600046 0.533349 2.666743 1.066697a44.201266 44.201266 0 0 1-39.33446 79.202269A499.480975 499.480975 0 0 1 15.537391 370.0516V342.650816a44.134598 44.134598 0 0 1 43.134569-42.001204z m450.946251-31.267562a95.936082 95.936082 0 1 1-95.936082 95.936081 96.136087 96.136087 0 0 1 95.936082-95.936081z m383.610989 5.933503a95.936082 95.936082 0 1 1 95.936081-95.936082A96.136087 96.136087 0 0 1 894.895914 275.982239zM226.743441 179.91282a95.936082 95.936082 0 1 1-96.46943-95.936081 95.802744 95.802744 0 0 1 96.46943 95.936081z m286.074862 525.348383a95.402733 95.402733 0 1 1-95.936082 95.336064 95.669407 95.669407 0 0 1 96.00275-95.336064z"  horiz-adv-x="1024" />


    <glyph glyph-name="dianhua-icon-1" unicode="&#58997;" d="M721.14115 141.133671c-37.364108-37.364108-179.347719 0-313.858509 134.510789S235.407744 552.13886 272.771852 589.502968c29.891287 29.891287 74.728216 89.67386 134.510789 14.945644s29.891287-97.146681 0-127.037968c-22.418465-22.418465 22.418465-82.201038 74.728217-134.510789s112.092324-97.146681 134.510789-74.728217c29.891287 29.891287 52.309751 59.782573 127.037968 0 59.782573-52.309751 7.472822-89.67386-22.418465-127.037967m149.456432 754.754984H160.679528a81.154843 81.154843 0 0 1-67.255395-29.891287 94.755378 94.755378 0 0 1-29.891286-67.255394v-141.983611a64.565179 64.565179 0 0 0 44.836929-22.418465 47.676602 47.676602 0 0 0 0-44.83693 44.83693 44.83693 0 0 0-44.836929-22.418465V447.519357a64.565179 64.565179 0 0 0 44.836929-22.418464 47.676602 47.676602 0 0 0 0-44.83693 44.83693 44.83693 0 0 0-44.836929-22.418465v-119.565146a64.565179 64.565179 0 0 0 44.836929-22.418465 47.676602 47.676602 0 0 0 0-44.83693 44.83693 44.83693 0 0 0-44.836929-22.418465v-186.82054a90.869511 90.869511 0 0 1 89.673859-89.67386h709.918055a81.154843 81.154843 0 0 1 67.255394 29.891287 111.270314 111.270314 0 0 1 29.891287 67.255394V806.214795A96.399399 96.399399 0 0 1 870.597582 895.888655"  horiz-adv-x="1024" />


    <glyph glyph-name="dianhua" unicode="&#58998;" d="M760.208491 895.998763H263.295492A135.527348 135.527348 0 0 1 127.768144 760.471416V7.527966a135.527348 135.527348 0 0 1 135.527348-135.527348h496.974827a135.527348 135.527348 0 0 1 135.527348 135.527348V760.471416A135.527348 135.527348 0 0 1 760.208491 895.998763zM466.586513 850.802371h90.392784a22.567282 22.567282 0 0 0 0-45.196392H466.648341a22.567282 22.567282 0 0 0 0 45.196392z m45.196392-923.651025a57.74751 57.74751 0 1 0 57.747511 57.74751 57.74751 57.74751 0 0 0-57.747511-57.74751z m293.621978 193.274858a22.567282 22.567282 0 0 0-22.567282-22.567282H240.72821a22.567282 22.567282 0 0 0-22.62911 22.567282V737.904134a22.567282 22.567282 0 0 0 22.62911 22.567282h542.109391a22.567282 22.567282 0 0 0 22.567282-22.567282z m0 0"  horiz-adv-x="1024" />


    <glyph glyph-name="dianhua-icon-2" unicode="&#58999;" d="M721.14115 141.133671c-37.364108-37.364108-179.347719 0-313.858509 134.510789S235.407744 552.13886 272.771852 589.502968c29.891287 29.891287 74.728216 89.67386 134.510789 14.945644s29.891287-97.146681 0-127.037968c-22.418465-22.418465 22.418465-82.201038 74.728217-134.510789s112.092324-97.146681 134.510789-74.728217c29.891287 29.891287 52.309751 59.782573 127.037968 0 59.782573-52.309751 7.472822-89.67386-22.418465-127.037967m149.456432 754.754984H160.679528a81.154843 81.154843 0 0 1-67.255395-29.891287 94.755378 94.755378 0 0 1-29.891286-67.255394v-141.983611a64.565179 64.565179 0 0 0 44.836929-22.418465 47.676602 47.676602 0 0 0 0-44.83693 44.83693 44.83693 0 0 0-44.836929-22.418465V447.519357a64.565179 64.565179 0 0 0 44.836929-22.418464 47.676602 47.676602 0 0 0 0-44.83693 44.83693 44.83693 0 0 0-44.836929-22.418465v-119.565146a64.565179 64.565179 0 0 0 44.836929-22.418465 47.676602 47.676602 0 0 0 0-44.83693 44.83693 44.83693 0 0 0-44.836929-22.418465v-186.82054a90.869511 90.869511 0 0 1 89.673859-89.67386h709.918055a81.154843 81.154843 0 0 1 67.255394 29.891287 111.270314 111.270314 0 0 1 29.891287 67.255394V806.214795A96.399399 96.399399 0 0 1 870.597582 895.888655"  horiz-adv-x="1024" />


    <glyph glyph-name="geren" unicode="&#59003;" d="M690.109067 326.167876a318.341969 318.341969 0 0 1 133.540374 258.183499 311.648625 311.648625 0 1 1-623.29725 0 318.341969 318.341969 0 0 1 133.540375-258.183499A485.104185 485.104185 0 0 1 22.243941-127.918374h88.890873a397.356078 397.356078 0 0 0 329.443125 391.8055l26.691749-80.156875h89.054126l26.691749 80.156875a400.866002 400.866002 0 0 0 329.443125-391.8055h89.054125a485.022559 485.022559 0 0 1-311.648625 454.08625zM289.406317 584.351375a222.5945 222.5945 0 1 0 445.188999 0 222.5945 222.5945 0 1 0-445.188999 0zM467.514567 139.244002l-44.404624-267.08075h177.944998l-44.486249 267.08075z"  horiz-adv-x="1024" />


    <glyph glyph-name="fall-icon" unicode="&#59004;" d="M851.077161-127.94336a9.45893 9.45893 0 0 0-8.835887 5.66403 8.382765 8.382765 0 0 0 2.095692 9.572211l200.223463 181.758726-343.013662 381.529067L433.185021 210.652359 0 654.599038V896l433.185021-443.946678L701.546767 692.094917l455.55794-520.637646 165.276398 165.559599a10.138614 10.138614 0 0 0 10.365175 1.86913 8.779247 8.779247 0 0 0 5.66403-8.042922v-449.89391a8.382765 8.382765 0 0 0-2.775374-6.173793 9.968693 9.968693 0 0 0-6.796837-2.605454h-477.760938z"  horiz-adv-x="1338" />


    <glyph glyph-name="guolv-icon-1" unicode="&#59005;" d="M106.88036 819.230388l216.916804-346.486849a38.128907 38.128907 0 0 0 5.80037-20.215998v-338.127491l223.314272-136.47931V452.271642a38.214207 38.214207 0 0 0 5.373873 19.363003L763.687041 819.230388z m146.37406-377.706491L5.88567 837.228597a38.214207 38.214207 0 0 0 32.413836 58.430205h792.347696a38.214207 38.214207 0 0 0 32.925634-57.577209L629.596118 442.120994v-531.928112a38.214207 38.214207 0 0 0-58.003707-32.669735L271.935026 60.405423a38.214207 38.214207 0 0 0-18.339408 32.584435z m511.797414-150.553739a38.384806 38.384806 0 1 0 0 76.769612h321.494075a38.384806 38.384806 0 1 0 0-76.769612z m0-168.125451a38.384806 38.384806 0 0 0 0 76.769612h321.494075a38.384806 38.384806 0 1 0 0-76.769612H764.881235z m0-168.12545a38.384806 38.384806 0 1 0 0 76.769612h321.494075a38.384806 38.384806 0 1 0 0-76.769612z"  horiz-adv-x="1125" />


    <glyph glyph-name="date" unicode="&#59006;" d="M511.673133-127.774239h-409.543278c-70.799794 0-101.617926 30.97171-101.720312 101.925083q-0.35835 362.445801 0 725.045181c0 71.106952 30.715746 101.720312 101.617926 102.38582 26.56912 0 53.189433 1.484594 79.553782-0.35835 29.999045-1.996523 46.073619 7.269393 41.773414 40.032855a91.737694 91.737694 0 0 0 0.767894 23.804703 31.534832 31.534832 0 0 0 34.606407 30.715746 31.944376 31.944376 0 0 0 32.097954-29.38473c4.300204-20.170006-9.470688-46.943898 10.54574-59.895705s46.687934-3.68589 70.287865-5.119291c10.596932-0.563122 21.245058 0 31.84199 0 63.939944 0 64.144716 0 74.895227 62.557736 3.327539 19.658077 13.310157 31.893183 33.940899 31.790797s30.357396-12.695842 33.531356-32.302726-8.702795-43.667552 9.31711-56.312201 43.872324-4.095433 66.141239-5.426448c13.207771-0.767894 26.517927 0 39.776891 0 62.148192 0 62.404157 0 71.670074 61.431491 3.020382 19.658077 12.286298 32.353919 32.968234 32.814656a31.688411 31.688411 0 0 0 34.504021-31.278868 73.973755 73.973755 0 0 0 0.614315-19.862849c-5.119291-36.858895 13.105385-46.073619 46.073618-43.667552a851.798826 851.798826 0 0 0 87.539876 0.307157 83.905179 83.905179 0 0 0 89.02447-90.355486q0.767894-372.479612 0-745.010416a84.775459 84.775459 0 0 0-94.092568-93.478253c-139.193522-0.563122-278.489429 0-417.734144 0z m-2.406066 68.649692h389.936393c52.370347 0 55.95385 3.737082 56.005044 57.387252V651.689005c0 81.294341 0 81.294341-79.912133 81.294341-63.939944 0-64.144716 0-74.997612-62.506543-3.378732-19.658077-13.310157-31.944376-33.9409-31.790797s-30.306203 12.644649-33.480163 32.353919c-10.238582 61.943421-10.238582 61.892228-75.560734 61.892228-9.265917 0-18.531833 0.511929-27.848943 0-24.930947-1.638173-52.933469 8.44683-74.076141-5.426449-19.555692-12.798227-5.682413-39.828084-10.238582-59.99809a31.944376 31.944376 0 0 0-32.609883-28.872801 30.715746 30.715746 0 0 0-33.326585 27.592978 127.214381 127.214381 0 0 0-1.433401 31.739605c1.945331 25.596455-8.293251 36.449352-34.452828 35.323107-29.077573-1.382209-58.308724-0.307157-87.488683-0.307157-58.76946 0-59.127811 0-64.554259-56.670551-1.945331-20.989093-9.521881-36.654123-32.558691-37.575596s-32.609884 12.798227-35.476686 34.401635c-7.934901 59.895704-8.242058 59.844512-69.468779 59.844512h-31.84199c-48.274914-0.460736-53.189433-4.812134-53.240626-52.063189 0-229.753779 0.460736-459.507558-0.614315-689.261338 0-37.985139 13.412542-51.756032 51.19291-51.19291 129.927605 1.484594 259.906403 0.563122 389.936394 0.563122zM290.929306 415.228955a117.743692 117.743692 0 0 0-15.66503 0c-16.023381 2.098909-38.599454-7.678936-46.073619 11.979141a127.163188 127.163188 0 0 0 0 78.47873c2.866803 10.238582 14.538786 10.238582 23.702317 10.238582 16.996046 0.409543 34.043285 0.460736 51.19291 0.409544 52.267961 0 52.575118-0.665508 52.267961-53.240627-0.460736-47.865371-0.460736-47.865371-65.424539-47.86537z m218.900883 0.563122c-62.967279-0.563122-62.967279-0.563122-63.530402 45.152146-0.614315 55.032378-0.511929 55.185957 54.00852 55.544307h15.665031c60.714791 0 74.229719-18.275869 60.970755-79.758553a22.52488 22.52488 0 0 0-23.907089-20.9379h-43.206815z m224.736873 99.979753c65.27096 0.665508 63.223244 0.563122 65.066189-56.312201 1.177437-35.835037-12.747035-48.3773-46.073619-44.537832a282.789634 282.789634 0 0 1-31.432447 0c-49.657122 0-72.847511 39.06019-52.370346 86.72079a21.552215 21.552215 0 0 0 21.552215 13.719699c14.385208 0.563122 28.770415 0 43.155623 0z m-445.890244-261.08384c-66.294818-0.307157-68.393727 2.662031-63.939944 69.264007 1.382209 21.245058 8.600409 32.251533 30.408588 31.483639 13.105385-0.460736 26.21077 0 39.316155 0 62.864893 0 70.646215-10.238582 61.431492-75.560735-2.559645-18.48064-11.160054-25.596455-28.156101-25.289297h-39.264961z m225.248803 100.491682c66.294818 0.35835 68.342535-2.662031 63.939945-69.161621-1.433401-21.193865-8.651602-32.302726-30.459782-31.48364-13.105385 0.460736-26.21077 0-39.316154 0-62.864893 0-70.646215 10.238582-61.431492 75.560735 2.559645 18.48064 11.160054 25.596455 28.1561 25.289297 12.84942 0.204772 26.005998 0.307157 39.06019 0.307158z m216.39243-100.901226c-62.608929 0-60.151669 0-63.376822 50.680981-2.713224 41.51745 13.054192 56.312201 51.807224 50.83456a216.39243 216.39243 0 0 1 27.490593 0c52.831083 0 52.984662-0.460736 52.77989-52.677505 0-48.582071 0-48.582071-68.700885-48.582071z m-437.392221-59.895704c62.762507 0.511929 62.762507 0.511929 63.274436-45.459304 0.614315-54.776413 0.409543-54.981185-54.213291-55.23715h-15.716223c-60.356441 0-74.127333 18.838991-60.663599 80.014518a22.473687 22.473687 0 0 0 24.111861 20.477164c14.385208 0.921472 28.821608 0.921472 43.155623 0.921473z m216.699587-100.133332c-62.762507-0.563122-62.762507-0.563122-63.32563 45.459304-0.614315 54.776413-0.409543 54.981185 54.264485 55.23715h15.66503c60.356441 0 74.178526-18.838991 60.714791-80.014518a22.473687 22.473687 0 0 0-24.163053-20.477164c-14.385208-0.307157-28.770415 0-43.206816 0z m225.248803 100.696454c66.550783 0 68.240149-2.662031 64.349488-69.264007-1.382209-24.470211-11.774369-32.968234-34.094478-32.046761-14.385208 0.614315-28.821608 0-43.206816 0-54.674028 0-54.878799 0.460736-54.264485 55.237149 0.511929 46.073619 0.511929 46.073619 67.267484 46.073619z"  horiz-adv-x="1024" />


    <glyph glyph-name="com-icon8" unicode="&#59008;" d="M516.408478-118.751445c-255.938343 0-457.063584 59.43738-457.063584 155.375722 0 59.43738 73.125241 100.56262 196.500963 128a27.314066 27.314066 0 0 0 36.562621-27.437379 30.211946 30.211946 0 0 0-4.562621-27.43738 25.156069 25.156069 0 0 0-22.874759-13.687861c-86.813102-18.49711-141.811175-45.687861-141.811175-59.43738 0-4.56262 4.56262-9.125241 18.49711-18.497109a236.639692 236.639692 0 0 1 82.250481-32 1042.990366 1042.990366 0 0 1 287.938343-32 1254.104046 1254.104046 0 0 1 287.938343 32 385.04817 385.04817 0 0 1 82.250482 32c13.687861 9.125241 18.49711 13.687861 18.49711 18.497109 0 13.687861-59.43738 45.687861-155.375723 64a25.156069 25.156069 0 0 0-22.874759 13.687862 30.211946 30.211946 0 0 0-4.56262 27.437379 25.156069 25.156069 0 0 0 13.687861 22.874759c9.125241 4.56262 18.49711 9.125241 22.874759 4.562621 128-27.43738 210.250482-68.56262 210.250482-132.562621 9.125241-96-191.938343-155.375723-447.938343-155.375722z m82.250482 191.938343c-18.49711-13.687861-32-27.43738-45.687862-36.562621a66.28131 66.28131 0 0 0-91.437379 0 320.184971 320.184971 0 0 0-45.687862 36.562621 937.186898 937.186898 0 0 0-109.687861 118.813102c-54.874759 68.56262-141.811175 201.125241-141.811175 324.500963a405.703276 405.703276 0 0 0 91.437379 265.125241A459.283237 459.283237 0 0 0 365.595376 854.751445a329.741811 329.741811 0 0 0 283.62235 0 315.252408 315.252408 0 0 0 109.687862-82.250482 397.071291 397.071291 0 0 0 91.437379-265.12524c0-118.813102-91.43738-251.375723-141.811175-324.500964zM507.283237 822.751445c-164.56262 0-278.813102-128-278.813102-310.813102a521.371869 521.371869 0 0 1 123.314065-274.250482 585.741811 585.741811 0 0 1 100.562621-109.687861c32-27.43738 50.250482-41.125241 54.874759-45.687861a265.125241 265.125241 0 0 1 54.874759 45.687861c36.56262 36.56262 68.56262 73.125241 100.562621 109.687861a536.416185 536.416185 0 0 1 123.314065 274.250482c0 182.813102-114.250482 310.813102-278.813102 310.813102z m0-447.938343a165.980732 165.980732 0 0 0-118.813102 50.250482 182.751445 182.751445 0 0 0-45.687861 118.813102 169.125241 169.125241 0 1 0 287.938343-118.813102 184.971098 184.971098 0 0 0-123.43738-50.065511z m0 274.250482a104.816956 104.816956 0 1 1 104.816956-104.816956 103.398844 103.398844 0 0 1-104.816956 104.816956z"  horiz-adv-x="1024" />


    <glyph glyph-name="icon-12" unicode="&#59009;" d="M642.901333 517.859556a130.844444 130.844444 0 1 1-130.844444-130.844445 130.844444 130.844444 0 0 1 130.844444 130.844445zM512 896a512 512 0 1 1 512-512 512 512 0 0 1-512 512zM294.684444 120.832a24.462222 24.462222 0 1 0-48.924444 0 267.719111 267.719111 0 0 0 167.480889 246.954667 179.427556 179.427556 0 1 0 98.645333-29.752889 217.429333 217.429333 0 0 1-217.201778-217.201778z m238.08 155.704889a20.878222 20.878222 0 1 0-20.878222 20.878222 20.878222 20.878222 0 0 0 20.992-20.878222z m-20.878222-180.394667s-52.565333 19.797333-52.565333 48.184889a342.186667 342.186667 0 0 0 35.157333 97.393778 38.627556 38.627556 0 0 1 34.759111 0 342.186667 342.186667 0 0 0 35.157334-97.393778c0.170667-28.387556-52.394667-48.184889-52.394667-48.184889z m241.607111 0a24.462222 24.462222 0 0 0-24.462222 24.462222 215.779556 215.779556 0 0 1-85.276444 172.714667 24.462222 24.462222 0 0 0 29.696 38.855111 264.362667 264.362667 0 0 0 104.789333-211.342222 24.462222 24.462222 0 0 0-24.576-24.462222z"  horiz-adv-x="1024" />


    <glyph glyph-name="icon-13" unicode="&#59010;" d="M512.027916 896A512.027916 512.027916 0 1 0 0 383.972084 511.972084 511.972084 0 0 0 512.027916 896z m160.514693-317.735347H597.393817l-6.197263-0.44665a38.356033 38.356033 0 0 1 6.197263-76.265416h75.316286l8.932992-0.446649a103.846028 103.846028 0 0 0 90.111553-106.079276v-21.774168l-0.44665-9.714628a102.171092 102.171092 0 0 0-98.709557-96.755466h-75.539611l-6.085601-0.669974a38.356033 38.356033 0 0 1 6.197263-76.265417h75.316286l10.775421 0.334988A180.334769 180.334769 0 0 1 848.634208 373.252494v21.774168l-0.334988 11.166239a179.162314 179.162314 0 0 1-175.756611 172.071752z m-247.164712 0H351.736547l-11.16624-0.502481a180.334769 180.334769 0 0 1-165.092852-183.070498v-21.774167l0.334987-11.166239A179.050652 179.050652 0 0 1 351.736547 189.847009h73.864674l6.197263 0.44665a38.356033 38.356033 0 0 1-6.197263 76.265416H351.736547l-8.932992 0.44665a103.846028 103.846028 0 0 0-90.111553 106.079276v21.774167l0.446649 9.714628A102.171092 102.171092 0 0 0 351.736547 501.329262h73.697181l6.197263 0.44665a38.523527 38.523527 0 0 1-6.308926 76.488741z m-6.9789-155.936536l-6.197263-0.446649a38.356033 38.356033 0 0 1 6.197263-76.265417h187.313669l6.197263 0.44665a38.356033 38.356033 0 0 1-6.197263 76.265416z"  horiz-adv-x="1024" />


    <glyph glyph-name="italic" unicode="&#59011;" d="M543.981143 767.974858H351.993714V896H863.993714v-128.025142H672.006286L478.409743 0.025142h193.596543v-128.025142H160.006286V0.025142h191.987428z"  horiz-adv-x="1024" />


    <glyph glyph-name="icon-dingyi" unicode="&#59013;" d="M190.378667 45.226667l5.205333 146.517333a136.533333 136.533333 0 0 0 39.936 91.690667l316.885333 316.885333a68.266667 68.266667 0 0 0 96.512 0l96.554667-96.512a68.266667 68.266667 0 0 0 0-96.512L517.376 179.2H420.778667l172.714666 172.629333-96.597333 96.554667-213.333333-213.333333a68.266667 68.266667 0 0 1-19.968-45.866667l-2.602667-73.258667-0.682667-5.12H819.2v-68.266666H189.781333z m354.858666 451.456l96.512-96.512 55.466667 55.466666-96.554667 96.512zM955.733333 725.333333H68.266667v-785.066666h887.466666zM68.266667 896h887.466666A68.266667 68.266667 0 0 0 1024 827.733333v-887.466666a68.266667 68.266667 0 0 0-68.266667-68.266667H68.266667A68.266667 68.266667 0 0 0 0-59.733333V827.733333A68.266667 68.266667 0 0 0 68.266667 896zM853.333333 827.733333v-34.133333h34.133334v34.133333z m68.266667 0v-34.133333h34.133333v34.133333z"  horiz-adv-x="1024" />


    <glyph glyph-name="icon-fangda" unicode="&#59014;" d="M0.321617 849.349422v-307.735588a39.364511 39.364511 0 1 1 78.729021 0v222.25348L329.299509 513.532961A37.740351 37.740351 0 0 1 382.640344 566.531868L132.305992 816.780739h222.25348a39.364511 39.364511 0 1 1 0 78.729021h-307.735588A41.501563 41.501563 0 0 1 0.321617 849.349422zM979.81835 895.637983H671.783574a39.364511 39.364511 0 0 1 0-78.729021h222.25348L643.788184 566.531868a37.740351 37.740351 0 0 1 53.383576-53.383576l250.248871 250.334353v-222.253481a39.364511 39.364511 0 1 1 78.729021 0v307.735588A41.501563 41.501563 0 0 1 979.81835 895.637983zM46.610179-127.71107h307.949293a39.364511 39.364511 0 0 1 0 78.729021h-222.25348l250.334352 250.24887A37.740351 37.740351 0 0 1 329.299509 254.522175l-250.248871-250.334353v222.25348a39.364511 39.364511 0 1 1-78.729021 0v-307.735588a41.501563 41.501563 0 0 1 46.288562-46.288561zM1026.106911-81.422509v307.735588a39.364511 39.364511 0 1 1-78.729021 0v-222.25348L697.129019 254.522175a37.740351 37.740351 0 0 1-53.383576-53.383577L894.037054-48.939308h-222.25348a39.364511 39.364511 0 1 1 0-78.729021h307.949294A41.501563 41.501563 0 0 1 1026.106911-81.422509z"  horiz-adv-x="1027" />


    <glyph glyph-name="left-icon-2" unicode="&#59015;" d="M73.142857 18.285714h1024a73.142857 73.142857 0 0 0 0-146.285714H73.142857a73.142857 73.142857 0 1 0 0 146.285714zM73.142857 896h1024a73.142857 73.142857 0 0 0 0-146.285714H73.142857a73.142857 73.142857 0 0 0 0 146.285714z m0-438.857143h585.142857a73.142857 73.142857 0 1 0 0-146.285714H73.142857a73.142857 73.142857 0 1 0 0 146.285714z"  horiz-adv-x="1170" />


    <glyph glyph-name="kehu-icon-21" unicode="&#59016;" d="M404.938272-128H254.074074a41.432099 41.432099 0 0 0-40.691358 42.024691 462.37037 462.37037 0 0 0 76.592593 253.481482 445.481481 445.481481 0 0 0 201.28395 166.814815 302.518519 302.518519 0 0 0-116.395061 151.160493 310.567901 310.567901 0 0 0-5.530865 192.592593 303.308642 303.308642 0 0 0 107.506173 157.432099A291.358025 291.358025 0 0 0 655.012346 896h0.296296a302.617284 302.617284 0 0 0 298.37037-306.17284 329.728395 329.728395 0 0 0-36.987654-151.160493 245.62963 245.62963 0 0 0-83.950617-96.54321 194.320988 194.320988 0 0 1-9.876543-7.753087 695.407407 695.407407 0 0 0 100.543209-60.049382 454.567901 454.567901 0 0 0 173.728395-360.493828 41.530864 41.530864 0 0 0-40.592592-41.82716h-298.666667z m221.135802 248.098765a585.382716 585.382716 0 0 1-58.172839-165.777777c0-47.802469 86.37037-81.728395 87.259259-82.024692s87.160494 34.567901 87.160494 82.024692a585.037037 585.037037 0 0 1-58.271605 165.82716 62.567901 62.567901 0 0 0-57.777778 0z m31.358025 105.08642a34.074074 34.074074 0 0 1-24.691358-10.419753 36 36 0 0 1 0-50.172839 34.024691 34.024691 0 0 1 48.987654 0 36 36 0 0 1 0 50.172839 34.074074 34.074074 0 0 1-24.049383 10.469136zM32.592593 7.555556a31.901235 31.901235 0 0 0-16.296297 4.493827 33.728395 33.728395 0 0 0-16.296296 28.888889 369.975309 369.975309 0 0 0 61.234568 202.814814 356.246914 356.246914 0 0 0 161.08642 133.333334 241.975309 241.975309 0 0 0-93.333334 120.641975 248.54321 248.54321 0 0 0-4.444444 153.975309 243.308642 243.308642 0 0 0 79.358025 120.395061A233.530864 233.530864 0 0 0 335.802469 824.839506a366.716049 366.716049 0 0 1-45.481481-77.777778 178.814815 178.814815 0 0 1 19.753086-337.580247 39.061728 39.061728 0 0 0-2.419753-77.975308h-0.888889a288.395062 288.395062 0 0 1-172.148148-99.012346 298.814815 298.814815 0 0 1-69.679012-191.802469 33.580247 33.580247 0 0 0-16.246914-28.938272 31.901235 31.901235 0 0 0-16.098765-4.19753z"  horiz-adv-x="1097" />


    <glyph glyph-name="com-icon5" unicode="&#59017;" d="M1011.410618 78.707482c-0.508662 19.074821-1.017324 36.877988-1.017324 47.814219a36.178578 36.178578 0 0 1-1.971065 12.716548 140.962931 140.962931 0 0 1-102.558957 81.195157c-9.473828 3.497051-18.438994 6.358274-26.895498 9.98249-17.42167 7.43918-35.352002 14.941943-53.282335 22.889785-30.392549 12.716548-61.738839 26.895498-91.114064 38.849054l-4.005712 1.462403c-10.427569 2.988389-20.410059 5.468115-30.901211 8.456504a289.174294 289.174294 0 0 0-21.427383 40.311456c-1.017324 2.479727-2.479727 4.959454-3.49705 6.994101a39.92996 39.92996 0 0 1-6.358274 9.473828 70.704005 70.704005 0 0 1 7.947842 17.42167v0.063583a134.922571 134.922571 0 0 1 4.959454 35.860664 81.067991 81.067991 0 0 0 1.462403 15.450606h0.508662a69.941012 69.941012 0 0 1 26.895498 21.936045 147.893449 147.893449 0 0 1 19.392735 52.26501 157.494443 157.494443 0 0 1-5.976777 93.593791v0.635828a143.315492 143.315492 0 0 1-5.976778 10.936231 3.751382 3.751382 0 0 0-1.017324 1.971064 6.358274 6.358274 0 0 1-0.508661 2.479727c-1.017324 8.456504 2.479727 42.346104 3.49705 56.779385 1.017324 12.716548 1.971065 20.918721 1.971065 25.878175a198.823223 198.823223 0 0 1-8.456504 73.692394v0.572244c-0.508662 1.462403-0.508662 3.497051-1.017324 4.959454a111.714871 111.714871 0 0 1-40.820118 57.796709 52.964421 52.964421 0 0 1-12.716548 4.450792l-18.438994 2.988388L630.104936 848.058615a23.398448 23.398448 0 0 1-5.976777 4.450792 243.903384 243.903384 0 0 1-226.481714-0.445079c-52.582925-17.42167-133.52375-73.183732-96.391431-250.007327l-1.971065-4.005713a60.912263 60.912263 0 0 1-8.965166-35.860664c0.508662-3.497051 0.508662-7.43918 1.017324-11.953555 2.479727-38.849053 6.358274-97.090841 43.299845-120.807202l4.959453-2.479727c0.508662-6.994101 1.462403-14.433282 1.971065-21.427383l2.479727-28.866563a57.923875 57.923875 0 0 1 1.971065-8.965166 83.992797 83.992797 0 0 1 8.456504-16.404347c-0.508662-0.508662-0.508662-1.017324-1.017324-1.971065-1.017324-1.971065-1.971065-4.450792-3.497051-6.994101a324.271965 324.271965 0 0 0-21.427382-40.820118c-10.427569-2.988389-20.410059-5.468115-30.901211-8.456504a34.271096 34.271096 0 0 1-4.005713-1.462403c-28.866563-11.953555-59.259112-24.924433-89.015833-38.149643q-28.357901-11.953555-55.2534-23.90711c-8.456504-3.497051-17.42167-6.358274-26.895498-9.98249A139.373362 139.373362 0 0 1 20.346476 138.920335a33.508103 33.508103 0 0 1-1.971065-11.953554c0-11.444893-0.508662-29.883887-1.017323-49.276623-1.208072-31.982117-1.208072-122.523937-1.208072-147.384787a37.513816 37.513816 0 0 1 37.323067-36.877988h1.271655a37.195902 37.195902 0 0 1 36.369326 38.149643c-0.508662 23.398448 0.508662 113.050109 1.017324 144.396398 0.508662 16.913008 1.017324 31.791369 1.017324 43.299845 6.994101 12.716548 23.398448 19.901397 54.299658 30.392549 9.98249 3.497051 20.918721 6.994101 31.34629 11.444893 17.930332 7.43918 36.877988 15.959267 55.762062 23.90711 28.866563 12.716548 58.75045 25.433095 86.15461 36.877988 12.716548 3.497051 24.924433 6.994101 36.877988 9.98249a42.600435 42.600435 0 0 1 11.953555 5.468115 158.956846 158.956846 0 0 1 44.507917 63.264825 201.048618 201.048618 0 0 1 54.299658-23.90711l-88.634337-228.897858a38.149643 38.149643 0 0 1 7.947842-39.357715l100.587892-105.547345a35.797082 35.797082 0 0 1 26.386837-11.444893h0.508662a37.323067 37.323067 0 0 1 26.386836 10.936231l105.547345 105.547345a36.68724 36.68724 0 0 1 7.947843 40.311457L561.181248 278.35728a168.875753 168.875753 0 0 1 44.507917 22.381124c1.462403-0.508662 3.497051-1.017324 5.468115-1.462403s4.005713-0.508662 5.976778-1.017324a152.598572 152.598572 0 0 1 43.808506-61.738838 48.450047 48.450047 0 0 1 11.444893-5.468116c12.716548-3.497051 24.924433-6.358274 37.323068-9.98249 28.357901-11.444893 58.75045-24.924433 88.125675-37.323067 18.438994-7.947842 36.369326-15.959267 53.790997-23.398448 10.427569-4.450792 20.918721-7.947842 31.346289-11.444893 28.357901-9.98249 46.796895-16.913008 54.299659-30.392549 0-11.444893 0.508662-25.878174 1.017324-41.837441 1.017324-31.34629 1.462403-127.165477 1.017324-150.373177a37.640981 37.640981 0 0 1 36.369326-38.149642h0.572245a37.450233 37.450233 0 0 1 37.323067 36.369326 11814.3086 11814.3086 0 0 1-2.161813 154.18814z m-496.008942-96.582179l-57.796709 60.785097 57.796709 149.928097 60.785098-149.419435-60.785098-61.230177z m141.40801 532.823346a94.611115 94.611115 0 0 0-5.468115-19.901397 1.843899 1.843899 0 0 0-1.462403-0.508662 67.206954 67.206954 0 0 1-30.901211-27.912822 115.148339 115.148339 0 0 1-10.936231-50.293946 133.52375 133.52375 0 0 0-1.462403-16.913008c-0.508662-1.462403-1.462403-2.479727-4.959453-6.358274-1.017324-1.017324-1.462403-1.971065-2.479727-2.988388a34.970506 34.970506 0 0 1-15.959267-9.473828 99.634151 99.634151 0 0 0-72.738653-34.334679 145.413722 145.413722 0 0 0-88.125675 43.299845 13.415958 13.415958 0 0 1-4.005713 3.49705l-1.971065 20.410059-4.450791 47.305557a37.450233 37.450233 0 0 1-35.860665 33.8896h-0.572244a240.851413 240.851413 0 0 0-9.600994 61.103011c0 2.479727-0.508662 4.450792-0.508662 6.994102a75.091214 75.091214 0 0 1 9.473828 54.80832c-19.392735 92.131388-3.497051 147.384787 47.814219 164.361379 1.017324 0.508662 1.462403 0.508662 2.479727 1.017323a176.950761 176.950761 0 0 0 158.384601 7.947843l14.941944-14.433282a36.051413 36.051413 0 0 1 19.074821-9.473828l18.438994-2.988389a72.293573 72.293573 0 0 0 5.976778-12.716547l0.508662-1.017324a129.454455 129.454455 0 0 0 5.976777-54.299659c0-2.988389-1.017324-12.716548-1.971065-20.918721a457.795716 457.795716 0 0 1-3.497051-71.721328 78.71543 78.71543 0 0 1 11.444893-34.334679l2.988389-5.468115a90.732568 90.732568 0 0 0-0.508662-48.831543z"  horiz-adv-x="1029" />


    <glyph glyph-name="link-icon" unicode="&#59018;" d="M631.046028 507.419015a236.589898 236.589898 0 0 1-24.717328 21.371613L526.441202 448.97141a130.960873 130.960873 0 0 0 26.082926-20.074295l4.028515-4.028514a131.302273 131.302273 0 0 0 0-185.379964l-218.017762-218.290882a131.302273 131.302273 0 0 0-185.379964 0l-4.028514 4.028515a131.302273 131.302273 0 0 0 0 185.379964l98.664474 98.801034a337.43933 337.43933 0 0 0-24.512489 132.394751L70.604503 288.923294a242.803371 242.803371 0 0 1 0-342.287204l4.028514-4.028515a242.803371 242.803371 0 0 1 342.287204 0L635.006263 160.693617a242.803371 242.803371 0 0 1 0 342.287204z m322.417749 314.0876l-4.028515 4.028515a242.803371 242.803371 0 0 1-342.287203 0l-218.495722-218.086042a242.803371 242.803371 0 0 1 0-342.287204l4.028515-4.028515a249.904481 249.904481 0 0 1 24.717329-21.508172l79.819218 79.819218A130.892593 130.892593 0 0 0 471.134472 339.518709l-4.028515 4.096795a131.302273 131.302273 0 0 0 0 185.379964l218.086042 218.086042a131.302273 131.302273 0 0 0 185.379964 0l4.028515-4.028515a131.302273 131.302273 0 0 0 0-185.379964l-98.732754-98.732754a337.43933 337.43933 0 0 0 24.512488-132.394751l152.810446 152.605605a242.803371 242.803371 0 0 1 0 342.287204z"  horiz-adv-x="1024" />


    </font>
</defs>
</svg>
